<svg xmlns="http://www.w3.org/2000/svg" width="112.412" height="112.644" viewBox="0 0 112.412 112.644">
  <g id="specno-logo" transform="translate(0 0.007)">
    <g id="Layer_1" data-name="Layer 1" transform="translate(0 -0.007)">
      <path id="Path_18346" data-name="Path 18346" d="M106.45,27.138,62.192,1.6A11.994,11.994,0,0,0,50.2,1.6L5.993,27.138A11.994,11.994,0,0,0,0,37.515V88.6A11.994,11.994,0,0,0,5.993,98.97L27.76,111.546l.187.115a11.573,11.573,0,0,0,2.6.773h.071l.351.058a10.972,10.972,0,0,0,6.095-.76l.227-.1c.191-.084.307-.142.342-.16h0c5.584-2.781,11.754-11.266,15.286-33.317a7.108,7.108,0,0,0,3.158.746h.115a7.21,7.21,0,0,0,2.985-.706l.235-.12c3.532,22.114,9.706,30.621,15.3,33.4h0c.036,0,.151.076.342.16l.227.1a10.986,10.986,0,0,0,6.1.76l.347-.058H81.8a11.466,11.466,0,0,0,2.834-.888l.2-.115,1.839-1.048.071-.053,19.684-11.359a11.994,11.994,0,0,0,5.993-10.368V37.52a11.994,11.994,0,0,0-5.962-10.382ZM74.022,62.552V62.6h0l-2.6,12.572h0a1.274,1.274,0,0,1-2.155.671l-.04-.027L61.952,70.73h0a8.381,8.381,0,0,1-5.695,2.63h-.12a8.313,8.313,0,0,1-5.713-2.541h0l-7.263,5.086a.244.244,0,0,1-.071.053,1.257,1.257,0,0,1-2.043-.742h0L38.452,62.632v-.155a2.346,2.346,0,0,1,.6-2.017l4.993-4.771.36-.342C46,39.99,50,33.331,54.036,28.866c.742-.822,1.484-1.568,2.221-2.283.76.746,1.537,1.528,2.31,2.394,4,4.469,7.943,11.146,9.529,26.369l.151.142,5.175,4.944A2.368,2.368,0,0,1,74,62.552ZM56.253,40.816a3.963,3.963,0,1,1-.031,0Z" transform="translate(0 0.007)" fill="#388cca"/>
    </g>
  </g>
</svg>
