<svg width="53" height="52" viewBox="0 0 53 52" fill="none" xmlns="http://www.w3.org/2000/svg">
<mask id="mask0_2_13238" style="mask-type:alpha" maskUnits="userSpaceOnUse" x="0" y="0" width="53" height="52">
<circle cx="26.5" cy="26" r="26" fill="#C4C4C4"/>
</mask>
<g mask="url(#mask0_2_13238)">
<path d="M-7.5 -3.00003V64H59.5V-3.00003H-7.5Z" fill="#FFD87D"/>
<path d="M49.1905 38.0237C48.9156 37.9666 48.3325 37.8577 47.687 37.8255C46.9959 37.792 46.2322 37.8441 45.6992 38.1396C45.1589 38.4387 44.8978 38.9111 44.369 39.3121C44.1242 39.4982 43.8222 39.6684 43.4087 39.8C43.0402 39.9173 42.7075 39.9568 42.3833 39.9761C41.5174 40.0283 40.7124 39.9395 39.4309 40.8261C39.2868 40.923 39.1346 41.0071 38.9758 41.0774C38.9279 41.1003 38.8778 41.1218 38.8271 41.1432C38.8242 41.1447 38.8212 41.146 38.8192 41.1469C37.6212 41.6527 35.7673 41.9526 35.7673 41.9526L26.2275 27.059L47.2612 34.803L49.2641 37.9165C49.2718 37.9282 49.2757 37.9418 49.2756 37.9558C49.2754 37.9697 49.2711 37.9833 49.2632 37.9947C49.2553 38.0062 49.2442 38.0151 49.2312 38.0203C49.2183 38.0254 49.2041 38.0266 49.1905 38.0237Z" fill="#F91C1C"/>
<g opacity="0.2">
<path opacity="0.2" d="M49.1905 38.0237C48.9156 37.9666 48.3325 37.8577 47.687 37.8255C46.9959 37.792 46.2322 37.8441 45.6992 38.1396C45.1589 38.4387 44.8978 38.9111 44.369 39.3121C44.1242 39.4982 43.8222 39.6684 43.4087 39.8C43.0402 39.9173 42.7075 39.9568 42.3833 39.9761C41.5174 40.0283 40.7124 39.9395 39.4309 40.8261C39.2868 40.923 39.1346 41.0071 38.9758 41.0774C38.9279 41.1003 38.8778 41.1218 38.8271 41.1432C38.8242 41.1447 38.8212 41.146 38.8192 41.1469C37.6212 41.6527 35.7673 41.9526 35.7673 41.9526L26.2275 27.059L47.2612 34.803L49.2641 37.9165C49.2718 37.9282 49.2757 37.9418 49.2756 37.9558C49.2754 37.9697 49.2711 37.9833 49.2632 37.9947C49.2553 38.0062 49.2442 38.0151 49.2312 38.0203C49.2183 38.0254 49.2041 38.0266 49.1905 38.0237Z" fill="#371A45"/>
</g>
<g opacity="0.35">
<path opacity="0.35" d="M47.6869 37.8257C46.9958 37.7922 46.2322 37.8442 45.6992 38.1397C45.1588 38.4389 44.8977 38.9112 44.3689 39.3122C44.5314 38.9422 44.6871 38.3072 44.2 37.7752C43.2813 36.7727 41.3835 36.0979 41.3964 35.9234C41.4373 35.3743 45.428 37.0278 47.6869 37.8257Z" fill="#371A45"/>
</g>
<g opacity="0.35">
<path opacity="0.35" d="M42.3832 39.9758C41.5174 40.028 40.7124 39.9392 39.4308 40.8258C39.2868 40.9227 39.1345 41.0068 38.9757 41.0771C38.925 41.0962 38.8753 41.1182 38.827 41.1429C38.8241 41.1444 38.8211 41.1458 38.8191 41.1466C39.0402 40.8081 39.6863 40.5047 39.3372 39.4585C38.9071 38.1688 36.9852 36.7745 37.0265 36.6048C37.1388 36.1469 40.193 38.5512 42.3832 39.9758Z" fill="#371A45"/>
</g>
<path d="M35.6272 42.2655L25.527 26.4963L47.4501 34.5673L49.5046 37.7615C49.5428 37.8207 49.5627 37.8899 49.5616 37.9603C49.5606 38.0307 49.5388 38.0992 49.4989 38.1573C49.459 38.2153 49.4028 38.2602 49.3374 38.2864C49.272 38.3125 49.2003 38.3188 49.1314 38.3042C48.0316 38.0726 46.5888 37.9736 45.8377 38.39C45.5677 38.5396 45.3756 38.7403 45.1528 38.9726C44.7826 39.3592 44.3629 39.7972 43.4945 40.0727C42.9644 40.2402 42.509 40.2593 42.0684 40.2767C41.3365 40.306 40.6447 40.3335 39.593 41.0615C38.5412 41.7894 35.9232 42.2172 35.8121 42.2356L35.6272 42.2655ZM26.9276 27.6219L35.9056 41.6383C36.5151 41.528 38.4726 41.141 39.2678 40.5908C40.4571 39.7682 41.2648 39.7365 42.0463 39.7049C42.4676 39.6881 42.8654 39.6714 43.322 39.5272C44.0506 39.2957 44.3853 38.9464 44.7397 38.5766C44.9731 38.3329 45.2146 38.081 45.5605 37.8899C46.4538 37.3946 47.8644 37.5088 48.7537 37.6525L47.0725 35.0395L26.9276 27.6219ZM49.0227 38.0709V38.0718V38.0709Z" fill="#371A45"/>
<path d="M28.9659 28.5365C28.9659 28.5365 40.3586 32.3739 49.3572 38.0615C49.3572 38.0615 50.8022 35.6112 48.6419 33.5281C48.6419 33.5281 44.5144 33.1038 38.6698 30.7585C32.9953 28.4805 28.584 25.8817 28.584 25.8817L28.9659 28.5365Z" fill="#F91C1C"/>
<g opacity="0.35">
<path opacity="0.35" d="M49.4965 37.7748C49.5043 37.7424 49.5119 37.7095 49.5194 37.676C49.8966 35.9621 48.7501 34.2809 47.0237 33.9622C45.3405 33.6511 42.2608 32.9386 38.4517 31.4098C33.7034 29.5037 29.8393 27.3731 28.7044 26.728L28.5828 25.8815C28.5828 25.8815 32.9942 28.4811 38.6693 30.7587C44.5132 33.1037 48.6412 33.528 48.6412 33.528C50.3581 35.1822 49.7992 37.0685 49.4965 37.7748Z" fill="white"/>
</g>
<path d="M49.3318 38.3183C49.2642 38.3183 49.198 38.2992 49.1408 38.2632C40.2856 32.6818 28.9877 28.8457 28.8747 28.8082L28.7072 28.7519L28.2152 25.3332L28.7288 25.6357C28.7726 25.6615 33.1883 28.2511 38.7759 30.4932C44.5098 32.7942 48.6298 33.2402 48.6706 33.2437L48.7688 33.254L48.84 33.3225C50.9324 35.3402 49.8793 37.6785 49.647 38.1267C49.6171 38.1847 49.5718 38.2333 49.5161 38.2672C49.4603 38.3011 49.3963 38.3189 49.3311 38.3188L49.3318 38.3183ZM29.2244 28.3224C30.6557 28.8187 40.9509 32.4717 49.2393 37.6492C49.517 36.9959 50.0066 35.3055 48.511 33.8007C47.8363 33.7169 43.8768 33.1561 38.5634 31.024C34.04 29.2087 30.2776 27.1667 28.9509 26.4206L29.2244 28.3224Z" fill="#371A45"/>
<path d="M21.6517 38.6088C22.2547 40.8841 22.8736 41.957 22.8736 41.957C22.8736 41.957 23.8741 44.1464 26.0136 45.2309C27.3896 45.9284 29.144 45.7853 29.144 45.7853C29.144 45.7853 30.0408 48.636 31.2363 49.2134C32.4317 49.7908 34.4378 48.9925 34.1161 46.9019C33.9018 45.5116 33.0265 43.4395 32.4438 42.7678C31.7146 41.9275 28.7085 38.4607 28.3475 37.1162" fill="white"/>
<g opacity="0.35">
<path opacity="0.35" d="M21.6517 38.6088C22.2547 40.8841 22.8736 41.957 22.8736 41.957C22.8736 41.957 23.8741 44.1464 26.0136 45.2309C27.3896 45.9284 29.144 45.7853 29.144 45.7853C29.144 45.7853 30.0408 48.636 31.2363 49.2134C32.4317 49.7908 34.4378 48.9925 34.1161 46.9019C33.9018 45.5116 33.0265 43.4395 32.4438 42.7678C31.7146 41.9275 28.7085 38.4607 28.3475 37.1162" fill="#371A45"/>
</g>
<path d="M32.0739 49.6837C31.7413 49.686 31.4125 49.6134 31.1118 49.4713C29.9971 48.933 29.1867 46.8012 28.9403 46.0818C28.4055 46.0962 27.0338 46.069 25.8841 45.4863C23.7401 44.3992 22.7116 42.2871 22.6188 42.0881C22.5455 41.9573 21.955 40.868 21.375 38.6823C21.3593 38.6103 21.3719 38.535 21.4103 38.4721C21.4487 38.4092 21.5099 38.3636 21.5811 38.3446C21.6524 38.3257 21.7281 38.335 21.7927 38.3705C21.8573 38.406 21.9056 38.4651 21.9277 38.5354C22.5123 40.7382 23.1153 41.804 23.1213 41.8145L23.1334 41.8382C23.1429 41.8589 24.1217 43.9515 26.1425 44.9756C27.4323 45.6289 29.1034 45.5014 29.1202 45.5002L29.3478 45.4816L29.4165 45.6994C29.656 46.4597 30.4717 48.5268 31.3595 48.9556C31.9122 49.2222 32.6647 49.1366 33.1908 48.7475C33.7226 48.3542 33.9502 47.7144 33.8318 46.9459C33.6201 45.5696 32.7576 43.5681 32.2263 42.9559C29.7193 40.0658 28.321 38.1262 28.07 37.1909C28.0525 37.1183 28.064 37.0418 28.1021 36.9776C28.1402 36.9134 28.2019 36.8667 28.274 36.8473C28.3461 36.828 28.4229 36.8375 28.4881 36.874C28.5532 36.9104 28.6015 36.9709 28.6227 37.0425C28.7512 37.5215 29.4465 38.8778 32.6595 42.5807C33.31 43.3306 34.1876 45.4897 34.3983 46.8588C34.6038 48.1931 33.9437 48.9033 33.5318 49.2078C33.1086 49.517 32.598 49.6836 32.0739 49.6837Z" fill="#371A45"/>
<path d="M21.9443 27.8265L8.39979 14.7255C8.39979 14.7255 6.44674 12.0455 3.95384 14.0083C1.507 15.9345 2.84599 17.8723 3.7051 18.7834L16.3936 29.0958C16.3936 29.0958 17.4091 38.0325 22.7624 41.2158C26.4003 43.3791 29.9195 41.6443 29.9195 41.6443C29.9195 41.6443 30.92 43.8335 33.0595 44.9181C34.4357 45.6157 36.1899 45.4726 36.1899 45.4726C36.1899 45.4726 37.0867 48.3233 38.2821 48.9005C39.4776 49.4777 41.4837 48.6798 41.162 46.589C40.9477 45.1988 40.0732 43.1266 39.4896 42.455C38.7607 41.6146 35.7544 38.148 35.3934 36.8034C33.4407 29.528 28.0157 26.2922 28.0157 26.2922L21.9443 27.8265Z" fill="white"/>
<path d="M41.196 47.0076C41.2074 48.7843 39.3935 49.4377 38.2815 48.9004C37.0866 48.3237 36.1893 45.473 36.1893 45.473C36.1893 45.473 34.4354 45.6161 33.0594 44.9184C30.9199 43.833 29.9194 41.6446 29.9194 41.6446C29.9194 41.6446 26.4002 43.3791 22.7625 41.216C22.708 41.1837 22.6536 41.1502 22.6 41.1165C19.111 38.9305 17.5124 34.285 16.8362 31.4529C16.5012 30.0533 16.3933 29.0959 16.3933 29.0959L14.4977 27.5549L12.6637 26.0641L3.70566 18.7832C3.69343 18.7703 3.68137 18.7574 3.66915 18.7439C2.80903 17.8179 1.5419 15.9074 3.9539 14.0083C6.44697 12.0455 8.40035 14.7254 8.40035 14.7254L12.9321 19.1088L21.9444 27.8264L28.0159 26.2931C28.0159 26.2931 28.7065 26.7051 29.6832 27.5661C29.9866 27.8331 30.3179 28.1436 30.6643 28.4984C32.4434 30.3193 33.8354 32.4816 34.7565 34.8549C35.0034 35.493 35.2158 36.1438 35.393 36.8047C35.7544 38.1492 38.7597 41.616 39.4897 42.4562C40.0721 43.128 40.9479 45.1996 41.1618 46.5906C41.1838 46.7285 41.1952 46.868 41.196 47.0076Z" fill="white"/>
<g opacity="0.35">
<path opacity="0.35" d="M41.1961 47.0076C41.2075 48.7842 39.3936 49.4377 38.2816 48.9003C37.0867 48.3236 36.1894 45.4729 36.1894 45.4729C36.1894 45.4729 34.4355 45.616 33.0595 44.9183C30.92 43.8329 29.9195 41.6445 29.9195 41.6445C29.9195 41.6445 26.4003 43.379 22.7626 41.2159C22.7081 41.1836 22.6537 41.1501 22.6001 41.1164C23.8228 41.4047 25.6318 41.6645 27.2154 41.2273C29.9145 40.4831 29.9145 39.5987 30.9377 39.7618C31.961 39.925 31.0014 41.963 33.2995 43.5658C35.7775 45.2945 38.2175 43.6896 38.6153 44.1125C39.0131 44.5354 37.391 45.2558 37.5686 46.8116C37.725 48.1747 40.5099 48.9017 41.1961 47.0076Z" fill="#371A45"/>
</g>
<g opacity="0.35">
<path opacity="0.35" d="M14.4979 27.5552L3.7057 18.7832C3.69348 18.7703 3.68142 18.7574 3.66919 18.7439L5.9018 15.5781C5.9018 15.5781 7.35369 21.2482 9.99265 22.1776C12.0934 22.9181 12.3797 19.3397 12.3797 19.3397L14.4979 27.5552Z" fill="#371A45"/>
</g>
<path d="M39.1196 49.3709C38.787 49.3733 38.4582 49.3006 38.1575 49.1584C37.0428 48.62 36.2324 46.4882 35.986 45.769C35.4517 45.7839 34.0795 45.7561 32.9298 45.1734C31.1376 44.2648 30.125 42.6396 29.7867 42.0147C28.8867 42.3788 25.8169 43.3649 22.6162 41.4619C19.7769 39.7735 18.1583 36.5031 17.3004 34.0567C16.4857 31.7337 16.1894 29.7443 16.1237 29.2455L3.50996 18.9928L3.4969 18.9791C2.63327 18.0632 2.212 17.1015 2.279 16.1986C2.34349 15.3276 2.84733 14.5148 3.77679 13.7834C4.5565 13.1695 5.37039 12.9162 6.19549 13.0296C7.5648 13.2184 8.48053 14.3586 8.61519 14.5354L22.0288 27.5098L28.0604 25.9856L28.1621 26.0462C28.2191 26.0797 29.572 26.8959 31.1816 28.6244C32.6638 30.2156 34.6457 32.914 35.6706 36.729C35.7991 37.2082 36.4946 38.565 39.7065 42.2672C40.3571 43.0171 41.2346 45.1762 41.4455 46.5454C41.6509 47.8798 40.9908 48.5899 40.5789 48.8945C40.1553 49.2041 39.6443 49.3709 39.1196 49.3709ZM36.3939 45.1692L36.4627 45.3869C36.7023 46.1472 37.518 48.2143 38.4057 48.6433C38.9585 48.91 39.7109 48.8244 40.237 48.4353C40.7688 48.042 40.9965 47.4021 40.8782 46.6335C40.6663 45.2571 39.8039 43.2558 39.2726 42.6434C36.7657 39.7539 35.3675 37.8143 35.1162 36.8784C33.3613 30.3404 28.6995 27.0797 27.9656 26.6008L21.8593 28.1435L8.18304 14.914L8.16847 14.8941C8.16043 14.8832 7.32427 13.7613 6.11341 13.5964C5.44961 13.5058 4.78246 13.7202 4.13089 14.2329C3.33291 14.8611 2.90194 15.5366 2.84985 16.2406C2.78134 17.1665 3.38015 18.0178 3.90057 18.573L16.6641 28.9471L16.6773 29.0632C16.6874 29.1512 17.7404 37.8965 22.9083 40.9695C26.3632 43.0237 29.7591 41.4036 29.7926 41.387L30.0565 41.2577L30.179 41.5249C30.1885 41.5457 31.1672 43.6384 33.1881 44.6625C34.473 45.3137 36.1492 45.1883 36.1659 45.1869L36.3939 45.1692Z" fill="#371A45"/>
<path d="M28.4341 38.2285C28.4429 38.9211 28.0824 39.5774 27.5003 39.8077C26.0431 40.3859 23.5921 41.0549 20.9631 40.4661C20.3519 40.3294 19.7988 39.9469 19.3975 39.3742C18.9118 38.6801 18.2625 37.5416 17.7431 35.8786C17.5542 35.2733 17.957 34.6371 18.4902 34.6944C19.8104 34.8374 22.2589 34.821 25.6134 33.6075C26.2654 33.3713 26.9601 33.7613 27.2285 34.5177L27.904 36.4196L28.3248 37.6052C28.3957 37.8054 28.4327 38.0161 28.4341 38.2285Z" fill="white"/>
<g opacity="0.35">
<path opacity="0.35" d="M28.4341 38.2285C28.4428 38.9212 28.0824 39.5774 27.5003 39.8077C26.0431 40.3859 23.592 41.0549 20.9631 40.4662C20.3519 40.3295 19.7988 39.9469 19.3975 39.3742C19.368 39.3327 19.3387 39.2905 19.3087 39.2446C19.5209 39.3691 19.7512 39.4599 19.9913 39.5138C22.621 40.1025 25.0717 39.4335 26.5293 38.8553C26.7806 38.756 26.9903 38.5771 27.1475 38.351C26.8728 38.2801 26.6303 38.0425 26.5278 37.7205L26.5085 37.6597C26.341 37.1331 26.6129 36.6045 27.078 36.5477C27.154 36.5384 27.2298 36.5284 27.3057 36.5177L26.2588 33.5697C26.6796 33.6702 27.0494 34.0127 27.2283 34.5179L27.9038 36.4199L28.3246 37.6054C28.3338 37.6312 28.3413 37.6557 28.3495 37.682C28.3561 37.7028 28.3624 37.7235 28.3675 37.7443C28.3797 37.7865 28.3889 37.8294 28.3974 37.8716C28.4011 37.8895 28.4046 37.9081 28.4075 37.9267C28.4118 37.949 28.4147 37.9711 28.4175 37.9937C28.4211 38.0195 28.4241 38.046 28.4261 38.0718C28.4281 38.0976 28.4304 38.1239 28.4319 38.1505C28.4334 38.1771 28.4341 38.2027 28.4341 38.2285Z" fill="#371A45"/>
</g>
<path d="M23.0802 40.9826C22.347 40.9841 21.616 40.9046 20.9003 40.7454C20.2181 40.5927 19.601 40.1639 19.163 39.5381C18.6878 38.8589 18.0073 37.6877 17.4701 35.9642C17.3403 35.5484 17.4239 35.0901 17.6879 34.7684C17.9029 34.5067 18.2071 34.3763 18.5202 34.4099C19.937 34.5634 22.301 34.5017 25.5158 33.3379C25.6923 33.2737 25.8799 33.2454 26.0675 33.2545C26.2551 33.2636 26.4391 33.3099 26.6086 33.3909C27.0141 33.5825 27.33 33.9483 27.4978 34.4211L28.5943 37.5093C28.9606 38.5416 28.508 39.716 27.606 40.0738C26.459 40.5292 24.8667 40.9826 23.0802 40.9826ZM18.4237 34.9772C18.2805 34.9772 18.18 35.0721 18.1309 35.1317C17.9897 35.3035 17.945 35.5633 18.0168 35.7936C18.5331 37.4469 19.1803 38.5639 19.6324 39.2098C19.9883 39.7183 20.4833 40.0654 21.0258 40.1868C23.5314 40.7481 25.8726 40.146 27.3955 39.5421C28.0089 39.2989 28.3167 38.4386 28.0556 37.7015L26.9593 34.6133C26.8421 34.2851 26.6317 34.0349 26.365 33.9098C26.2639 33.8608 26.1539 33.8326 26.0417 33.8271C25.9294 33.8216 25.8172 33.8388 25.7118 33.8776C22.3939 35.0782 19.9367 35.1396 18.459 34.9799C18.4472 34.9784 18.4353 34.9775 18.4233 34.9772H18.4237Z" fill="#371A45"/>
<g opacity="0.35">
<path opacity="0.35" d="M34.2303 34.1496C32.9176 34.8124 29.8996 36.2035 27.0781 36.5475C26.6132 36.6042 26.3421 37.1326 26.5086 37.6596L26.5278 37.7207C26.6581 38.1318 27.0166 38.4049 27.3806 38.3691C30.3237 38.0793 33.6663 36.8041 35.0757 36.2204C35.4531 36.0641 35.6154 35.5672 35.4355 35.1199L35.2423 34.6387C35.0618 34.185 34.6008 33.9623 34.2303 34.1496Z" fill="#371A45"/>
</g>
<path d="M34.3018 33.4341C32.9891 34.0969 29.9711 35.488 27.1495 35.832C26.6846 35.8886 26.4134 36.4171 26.5801 36.944L26.5993 37.0052C26.7296 37.4162 27.0881 37.6894 27.4522 37.6536C30.3954 37.3638 33.738 36.0886 35.1472 35.5049C35.5246 35.3486 35.6869 34.8516 35.507 34.4044L35.3138 33.9232C35.1324 33.4694 34.6723 33.247 34.3018 33.4341Z" fill="white"/>
<path d="M27.3902 37.9431C26.9258 37.9431 26.4884 37.5982 26.328 37.0917L26.3087 37.0305C26.1948 36.6712 26.2394 36.2818 26.4275 35.989C26.5881 35.7391 26.8326 35.5825 27.1159 35.548C29.9299 35.2048 32.9889 33.7767 34.1735 33.1785C34.2886 33.121 34.4144 33.0884 34.543 33.0826C34.6715 33.0768 34.7998 33.0981 34.9195 33.145C35.2127 33.2557 35.4539 33.5008 35.581 33.8174L35.7741 34.2986C36.013 34.8934 35.7815 35.5535 35.2582 35.7703C33.9217 36.323 30.4885 37.6432 27.4817 37.9394C27.4505 37.9416 27.4199 37.9431 27.3902 37.9431ZM34.4314 33.6896C33.2201 34.3013 30.089 35.7621 27.1852 36.1161C27.0427 36.1329 26.9564 36.225 26.909 36.2986C26.8119 36.4493 26.7918 36.6588 26.8544 36.8577L26.8737 36.9188C26.9621 37.1975 27.1986 37.3913 27.4264 37.3689C30.3577 37.0803 33.7271 35.7843 35.04 35.2405C35.2708 35.145 35.3641 34.8108 35.2438 34.511L35.0505 34.0299C34.9835 33.8624 34.8619 33.734 34.7182 33.6799C34.6725 33.6613 34.6235 33.6525 34.5742 33.6542C34.5249 33.6558 34.4766 33.6679 34.4323 33.6896H34.4314Z" fill="#371A45"/>
<g opacity="0.35">
<path opacity="0.35" d="M26.5809 36.9435L26.6001 37.0048C26.7308 37.4156 27.0891 37.6893 27.4531 37.6537C30.3962 37.3632 33.7392 36.0882 35.1483 35.5051C35.5255 35.3484 35.6875 34.8519 35.5075 34.4048L35.3143 33.9228C35.3095 33.9099 35.3036 33.8973 35.2976 33.8857C35.2808 34.1861 35.1234 34.4522 34.8658 34.5601C33.4568 35.1433 30.114 36.4193 27.1705 36.7088C26.942 36.7314 26.7154 36.6316 26.5467 36.452C26.5175 36.6161 26.5292 36.785 26.5809 36.9435Z" fill="#371A45"/>
</g>
<path d="M3.10547 18.0318C3.10547 18.0318 3.71634 18.8023 4.58634 18.6683C6.03236 18.4464 8.04638 16.899 7.63216 15.8103C7.28828 14.9058 6.30154 14.9048 6.65111 14.1991" fill="white"/>
<g opacity="0.35">
<path opacity="0.35" d="M4.58612 18.6689C3.71596 18.8029 3.10559 18.0324 3.10559 18.0324L3.1071 18.031C3.34026 18.1454 3.62635 18.22 3.94996 18.1706C5.39615 17.948 7.41034 16.4018 6.99611 15.3127C6.84871 14.9248 6.58256 14.703 6.35425 14.5206L6.65123 14.2C6.30132 14.9062 7.28773 14.9077 7.63228 15.8113C8.04651 16.8991 6.03232 18.4463 4.58612 18.6689Z" fill="#371A45"/>
</g>
<path d="M3.32969 17.8537L3.35968 17.8872C3.3714 17.9005 3.38396 17.9135 3.39703 17.9266C3.42215 17.953 3.44996 17.9785 3.47726 18.0036C3.53257 18.0536 3.59098 18.0999 3.65213 18.1425C3.76963 18.2268 3.89902 18.2932 4.03604 18.3395C4.16627 18.3824 4.30323 18.4012 4.44022 18.3951L4.54072 18.3859L4.65479 18.3654C4.731 18.3487 4.80755 18.3319 4.88376 18.3092C5.19397 18.2177 5.49293 18.0918 5.77503 17.9336C6.06078 17.7766 6.33012 17.5915 6.57903 17.3809C6.82391 17.172 7.05037 16.9377 7.2033 16.6784C7.27693 16.5579 7.33087 16.4264 7.36309 16.2889C7.38989 16.1747 7.38649 16.0555 7.35321 15.9431C7.34411 15.9122 7.33343 15.8818 7.32122 15.8521C7.30665 15.8213 7.29392 15.7893 7.27716 15.7595C7.24595 15.6973 7.20971 15.6377 7.16879 15.5814C7.08588 15.466 6.98119 15.3575 6.86176 15.2392C6.8023 15.1796 6.73631 15.122 6.67199 15.0496C6.60767 14.9772 6.53698 14.902 6.48405 14.7942C6.45611 14.7392 6.4362 14.6806 6.42493 14.62C6.41568 14.5591 6.41682 14.4972 6.42828 14.4367C6.44988 14.3205 6.506 14.2317 6.56496 14.1565C6.57837 14.139 6.59735 14.1265 6.61878 14.1212C6.64021 14.1158 6.66281 14.118 6.68288 14.1272C6.70295 14.1364 6.71928 14.1521 6.7292 14.1719C6.73913 14.1916 6.74205 14.2141 6.73748 14.2357L6.73631 14.2418C6.72073 14.321 6.7142 14.3974 6.72777 14.4541C6.73971 14.5053 6.76742 14.5515 6.80699 14.5861C6.8879 14.6652 7.03312 14.7478 7.17968 14.8464C7.34209 14.9497 7.48972 15.0746 7.61853 15.2176C7.68696 15.2947 7.74787 15.3782 7.80044 15.4668C7.82774 15.5111 7.85069 15.558 7.8738 15.6044C7.89725 15.6531 7.91723 15.7035 7.9336 15.7551C8.00388 15.9737 8.00929 16.2079 7.94918 16.4295C7.89457 16.638 7.80194 16.8194 7.69793 16.9841C7.48721 17.3122 7.22893 17.5804 6.95004 17.818C6.67199 18.0532 6.37111 18.26 6.0519 18.4353C5.73193 18.6145 5.39278 18.757 5.04087 18.8602C4.9516 18.8862 4.86014 18.9076 4.76785 18.9272L4.62748 18.9524L4.47121 18.9671C4.26312 18.9771 4.05496 18.9487 3.85715 18.8833C3.66671 18.8199 3.48675 18.7285 3.32316 18.6122C3.24292 18.556 3.16623 18.495 3.09352 18.4294C3.05734 18.3959 3.02166 18.3634 2.98732 18.3274C2.97057 18.3107 2.95265 18.2921 2.93557 18.273C2.91848 18.2539 2.90341 18.2373 2.88079 18.2097C2.83296 18.1517 2.80983 18.0773 2.81641 18.0025C2.82299 17.9277 2.85875 17.8585 2.91596 17.8098C2.97317 17.7611 3.04723 17.7369 3.12214 17.7424C3.19705 17.7479 3.2668 17.7827 3.31629 17.8391L3.32969 17.8537Z" fill="#371A45"/>
<path d="M9.2364 16.1137C8.3989 14.7254 7.44582 14.6455 6.32575 15.2787C5.50852 15.7407 5.09228 16.5517 5.35861 17.0259C5.67887 17.5954 7.25018 16.6502 7.30161 16.6952C7.35303 16.7403 6.95706 17.5111 7.1661 18.186" fill="white"/>
<path d="M9.1956 16.1383C9.12089 16.0713 9.05104 16.0043 8.98404 15.9363L8.87735 15.841C8.84267 15.8092 8.81035 15.7757 8.7745 15.746C8.63028 15.6288 8.4926 15.5128 8.34319 15.4301C8.27234 15.3815 8.19445 15.3527 8.12259 15.3149C8.04604 15.2897 7.97368 15.2556 7.89663 15.2425C7.74548 15.2043 7.5885 15.1947 7.43383 15.2144C7.35578 15.2186 7.27504 15.239 7.19514 15.2532C7.11508 15.278 7.03384 15.2936 6.95311 15.3261C6.7908 15.3795 6.62916 15.4577 6.46937 15.5391C6.16971 15.7018 5.89869 15.9353 5.73086 16.2153C5.64594 16.3529 5.59183 16.5031 5.5781 16.6358C5.57525 16.7004 5.57642 16.7626 5.59485 16.8095C5.59887 16.8361 5.61562 16.8535 5.62299 16.8765C5.62768 16.8823 5.62768 16.8796 5.63053 16.8815C5.66458 16.8935 5.70065 16.8988 5.73672 16.8971C5.80972 16.8959 5.88238 16.8869 5.95347 16.8703C6.11293 16.8368 6.28277 16.7781 6.45345 16.7147C6.62414 16.6512 6.79515 16.577 6.97589 16.5034C7.02195 16.4845 7.06634 16.4658 7.12245 16.4448C7.13719 16.4395 7.1521 16.4339 7.1737 16.4271L7.19045 16.4219L7.21642 16.4153C7.2315 16.4119 7.24677 16.4094 7.26214 16.4078C7.28276 16.4059 7.30351 16.4059 7.32412 16.4078C7.34584 16.4098 7.36726 16.4144 7.38794 16.4214C7.42078 16.4324 7.45149 16.449 7.47872 16.4704C7.49472 16.483 7.50922 16.4974 7.52194 16.5133C7.53373 16.5278 7.54421 16.5434 7.55326 16.5597C7.56717 16.5848 7.57738 16.6117 7.58358 16.6396C7.5889 16.6643 7.59165 16.6894 7.59178 16.7147L7.58961 16.7467C7.58886 16.7555 7.58763 16.7643 7.58592 16.773C7.58211 16.7936 7.57719 16.8141 7.57118 16.8343C7.55259 16.8949 7.53601 16.9384 7.51892 16.985L7.46867 17.1158C7.33836 17.4582 7.22345 17.7836 7.21072 18.1727V18.1744C7.2102 18.1848 7.20644 18.1949 7.19998 18.203C7.19351 18.2112 7.18465 18.2172 7.17463 18.2201C7.16461 18.2231 7.15393 18.2228 7.14407 18.2194C7.13421 18.216 7.12566 18.2096 7.1196 18.2011C6.99967 18.027 6.94155 17.8116 6.92178 17.6001C6.90636 17.3906 6.91977 17.18 6.96165 16.9741L7.02078 16.6982C7.02161 16.6919 7.02212 16.6853 7.02078 16.6887C7.02003 16.6914 7.01952 16.6942 7.01927 16.6971C7.01866 16.7017 7.01838 16.7064 7.01843 16.7111C7.0179 16.7302 7.01987 16.7492 7.02429 16.7678L7.03133 16.7929C7.04189 16.8254 7.05861 16.8556 7.08057 16.8818C7.09287 16.8962 7.1065 16.9094 7.12128 16.9212C7.1471 16.942 7.17643 16.958 7.20787 16.9684C7.22722 16.9746 7.24714 16.9789 7.26734 16.9812C7.28493 16.9831 7.30268 16.9831 7.32027 16.9812C7.32966 16.9803 7.339 16.9789 7.34824 16.977L7.35661 16.9751L7.33986 16.983L7.22161 17.0416C7.0516 17.1299 6.86986 17.2177 6.68259 17.2957C6.48787 17.3789 6.28561 17.4432 6.07859 17.4877C5.96073 17.5122 5.8405 17.5234 5.72014 17.5212C5.591 17.516 5.43154 17.4919 5.27626 17.383C5.20008 17.3278 5.13714 17.2563 5.09201 17.1738C5.0622 17.1076 5.0282 17.041 5.01429 16.9728C4.97476 16.8344 4.97744 16.6993 4.99034 16.5726C5.02384 16.3214 5.12233 16.1065 5.23891 15.9157C5.47961 15.5378 5.80724 15.2467 6.1749 15.0239C6.35496 14.9224 6.5367 14.8206 6.73988 14.747C6.84138 14.7077 6.94534 14.6749 7.05109 14.6491C7.10503 14.6368 7.16081 14.6284 7.21575 14.6184C7.24355 14.614 7.27052 14.6078 7.2995 14.6053L7.38492 14.6005C7.49798 14.5901 7.6144 14.599 7.7293 14.6089C7.84354 14.6313 7.95844 14.6506 8.06631 14.6926C8.12136 14.7098 8.17464 14.7323 8.22544 14.7596C8.27569 14.7861 8.32744 14.8109 8.37619 14.8398C8.46798 14.9043 8.56261 14.9648 8.63916 15.0423C8.80331 15.1869 8.92693 15.3593 9.0348 15.5341C9.08639 15.6231 9.13094 15.715 9.17449 15.8061C9.21218 15.9004 9.24719 15.9952 9.27717 16.0909C9.28033 16.1011 9.28006 16.1121 9.2764 16.1222C9.27274 16.1322 9.26589 16.1408 9.2569 16.1466C9.2479 16.1524 9.23726 16.1551 9.22658 16.1543C9.21591 16.1535 9.20579 16.1492 9.19777 16.1421L9.1956 16.1383Z" fill="#371A45"/>
<path d="M29.1294 45.5345C29.2021 45.5146 29.2946 45.4969 29.3782 45.4784L29.6355 45.423C29.8065 45.3833 29.9782 45.3449 30.1465 45.2913C30.3159 45.2379 30.4804 45.1699 30.6381 45.0882C30.8001 45.0073 30.9463 44.9002 31.0996 44.7821L31.1018 44.7805C31.1082 44.7755 31.1162 44.7728 31.1243 44.7728C31.1325 44.7729 31.1404 44.7756 31.1468 44.7806C31.1532 44.7857 31.1578 44.7927 31.1597 44.8006C31.1617 44.8085 31.161 44.8169 31.1577 44.8243C31.0758 45.01 30.9616 45.1797 30.8204 45.3255C30.6761 45.4726 30.5127 45.5997 30.3346 45.7034C30.158 45.8082 29.9694 45.8911 29.7728 45.9504C29.6749 45.9799 29.575 46.0023 29.4738 46.0174C29.3696 46.0346 29.2638 46.041 29.1583 46.0365C29.0977 46.035 29.0397 46.0116 28.995 45.9706C28.9503 45.9297 28.9219 45.874 28.9151 45.8138C28.9082 45.7536 28.9234 45.6929 28.9577 45.643C28.9921 45.593 29.0433 45.5572 29.102 45.5421L29.1294 45.5345Z" fill="#371A45"/>
<path d="M36.1751 45.2217C36.2478 45.202 36.3403 45.1841 36.4239 45.1656L36.6813 45.1102C36.8522 45.0707 37.0238 45.0323 37.1923 44.9787C37.3617 44.9252 37.5261 44.8572 37.6838 44.7754C37.8459 44.6945 37.992 44.5874 38.1453 44.4695L38.1474 44.4678C38.1539 44.4629 38.1618 44.4602 38.17 44.4602C38.1781 44.4602 38.1861 44.463 38.1925 44.468C38.1989 44.4731 38.2034 44.4801 38.2054 44.488C38.2074 44.4959 38.2067 44.5043 38.2034 44.5117C38.1214 44.6974 38.0072 44.8671 37.866 45.0129C37.7218 45.16 37.5584 45.287 37.3803 45.3906C37.2038 45.4955 37.0151 45.5784 36.8185 45.6377C36.7206 45.6673 36.6207 45.6896 36.5195 45.7047C36.4152 45.7218 36.3095 45.7282 36.2039 45.7237C36.1435 45.7221 36.0856 45.6986 36.0411 45.6577C35.9965 45.6168 35.9682 45.5611 35.9613 45.501C35.9545 45.4409 35.9696 45.3803 36.0038 45.3305C36.038 45.2806 36.0891 45.2447 36.1477 45.2295L36.1751 45.2217Z" fill="#371A45"/>
<path d="M40.3066 36.9841C39.2991 37.2776 38.0554 37.0478 38.0554 37.0478C38.0554 37.0478 38.0018 38.5298 37.1677 38.2442C36.8987 38.1519 36.6747 37.603 36.5186 37.0779C36.2841 36.2929 35.8096 35.5989 35.1441 35.1215C35.0154 35.0293 34.8858 34.94 34.7555 34.8535C32.5688 33.4067 30.2526 32.8291 30.2526 32.8291L29.8942 29.5197L29.6823 27.5648L29.6722 27.4731C30.0536 27.5462 30.5087 27.71 31.0076 27.937C33.5162 29.076 37.1163 31.7938 37.9119 32.5022C38.8666 33.3522 41.7093 33.0152 42.0257 34.7562C42.2458 35.9652 41.6411 36.597 40.3066 36.9841Z" fill="white"/>
<g opacity="0.35">
<path opacity="0.35" d="M40.3067 36.9841C39.2992 37.2775 38.0555 37.0477 38.0555 37.0477C38.0555 37.0477 38.0019 38.5298 37.1678 38.2442C36.8988 38.1519 36.6748 37.603 36.5187 37.0779C36.2842 36.2928 35.8097 35.5989 35.1442 35.1215C35.0154 35.0292 34.8859 34.9399 34.7556 34.8535C32.5689 33.4066 30.2527 32.8291 30.2527 32.8291C30.4918 32.661 30.7658 32.5491 31.0542 32.5015C31.3426 32.4539 31.638 32.472 31.9185 32.5544C32.5307 32.7344 33.3598 33.0601 34.4645 33.7915C34.5946 33.8775 34.7241 33.9669 34.8531 34.0595C35.5184 34.5367 35.9936 35.2309 36.2276 36.0158C36.3835 36.541 36.6075 37.0898 36.8766 37.1822C37.3579 37.3471 37.5299 36.9173 37.5884 36.5245C37.6094 36.3813 37.6841 36.2515 37.7973 36.1615C37.9106 36.0714 38.0538 36.0278 38.1981 36.0396C38.6955 36.0804 39.422 36.0947 40.0151 35.9223C41.1628 35.5888 41.7703 35.0758 41.7789 34.1698C41.9045 34.3439 41.9887 34.5444 42.0251 34.756C42.2459 35.9652 41.6412 36.597 40.3067 36.9841Z" fill="#371A45"/>
</g>
<path d="M30.2759 32.7372C30.5165 32.7429 30.7471 32.7782 30.9773 32.8218C31.206 32.8672 31.4321 32.9247 31.6548 32.9939C32.0987 33.1351 32.5329 33.3051 32.9546 33.503C33.1672 33.5986 33.3734 33.7083 33.58 33.8155L33.8857 33.9861L34.0383 34.0716L34.1891 34.1618L34.4897 34.3412L34.7842 34.5316L34.9314 34.6266L35.0758 34.7271L35.3641 34.9281C35.7666 35.2189 36.1077 35.5864 36.3678 36.0095C36.498 36.2206 36.6064 36.4444 36.6914 36.6774C36.7125 36.7357 36.7332 36.7947 36.7508 36.8537L36.8011 37.0203C36.833 37.1256 36.8672 37.2293 36.9036 37.3314C36.9766 37.5315 37.0637 37.7334 37.1652 37.8747C37.1765 37.8908 37.1888 37.9062 37.2021 37.9208L37.2197 37.9409C37.2251 37.9451 37.2304 37.9497 37.2354 37.9545C37.2465 37.967 37.2521 37.9652 37.2585 37.9727C37.2629 37.9712 37.2552 37.9739 37.2791 37.9793C37.3488 37.9992 37.3964 37.9997 37.4299 37.9844C37.4652 37.9731 37.5093 37.9355 37.5526 37.8719C37.6001 37.7975 37.6373 37.717 37.6634 37.6327C37.6942 37.5372 37.7181 37.4395 37.7347 37.3406C37.7521 37.2408 37.7638 37.1402 37.7696 37.0391L37.7863 36.7136L38.1079 36.7681C38.2932 36.7992 38.5002 36.8218 38.698 36.8351C38.8973 36.8487 39.0971 36.8523 39.2967 36.8458C39.4931 36.8392 39.6888 36.8204 39.8829 36.7895C40.0742 36.7577 40.2531 36.7057 40.4464 36.6433C40.8194 36.5165 41.1758 36.3496 41.4278 36.1086C41.5487 35.9919 41.6425 35.85 41.7025 35.693C41.7611 35.5376 41.785 35.3646 41.7844 35.1838C41.778 35.0922 41.7763 35.0011 41.7592 34.9073C41.7489 34.8197 41.7303 34.7333 41.7036 34.6492C41.6522 34.4898 41.5654 34.344 41.4497 34.2229C41.2152 33.974 40.8623 33.8072 40.4883 33.6817C40.1117 33.5556 39.7094 33.4661 39.299 33.3665C39.0938 33.3162 38.8859 33.264 38.6759 33.199C38.4659 33.134 38.253 33.0558 38.0422 32.9398L37.9635 32.8955L37.8858 32.8439C37.8331 32.8082 37.7824 32.7696 37.734 32.7283L37.618 32.6278L37.5007 32.5295C37.3428 32.3988 37.1803 32.2702 37.0175 32.1422C36.6905 31.8874 36.359 31.6371 36.0229 31.3913C35.3529 30.8997 34.6696 30.423 33.9748 29.9676C33.2801 29.5121 32.5761 29.0706 31.8458 28.6865C31.4786 28.4982 31.1047 28.3296 30.7423 28.1452C30.3748 27.9663 30.022 27.7847 29.6547 27.5695L29.6507 27.5669C29.6328 27.5562 29.6187 27.5402 29.6105 27.5211C29.6022 27.502 29.6001 27.4807 29.6046 27.4604C29.609 27.44 29.6197 27.4216 29.6352 27.4077C29.6507 27.3937 29.6702 27.385 29.6909 27.3827C29.802 27.3696 29.9142 27.3673 30.0259 27.376C30.081 27.381 30.1368 27.3842 30.1919 27.3912C30.247 27.3983 30.2999 27.4093 30.354 27.4192C30.567 27.4617 30.7758 27.5234 30.9778 27.6035C31.3821 27.7542 31.7551 27.9633 32.1235 28.173C32.4918 28.3827 32.8596 28.5917 33.2199 28.8118C33.5802 29.0319 33.9362 29.2577 34.2884 29.4885C34.9927 29.9505 35.6836 30.4306 36.3611 30.929C36.7004 31.1781 37.0365 31.432 37.3694 31.6905C37.5356 31.8209 37.701 31.9519 37.8654 32.0879L37.9886 32.1913L38.1101 32.2961C38.1745 32.3506 38.2445 32.3981 38.3188 32.438C38.6342 32.6104 39.0345 32.7109 39.4338 32.8094C39.8358 32.9077 40.2524 32.999 40.6697 33.1383C40.884 33.2081 41.092 33.296 41.2914 33.401C41.4949 33.5104 41.6946 33.6485 41.8651 33.8294C42.0389 34.0123 42.1694 34.2319 42.247 34.472C42.2838 34.5872 42.3098 34.7055 42.3247 34.8256C42.3447 34.9381 42.3488 35.0564 42.3555 35.1735C42.3574 35.4106 42.3259 35.6592 42.2366 35.8949C42.1469 36.13 42.0068 36.3427 41.8261 36.5178C41.468 36.8572 41.0417 37.0419 40.6273 37.1851C40.5209 37.2168 40.4223 37.2536 40.309 37.2804C40.1985 37.3114 40.0878 37.332 39.9769 37.3531C39.7577 37.3882 39.5366 37.4096 39.3147 37.417C38.8757 37.4302 38.4364 37.4013 38.0029 37.3305L38.3409 37.0593C38.3342 37.1866 38.3198 37.3133 38.2979 37.4387C38.2765 37.5654 38.2458 37.6904 38.2061 37.8126C38.1637 37.9469 38.1031 38.0748 38.0258 38.1926C37.9421 38.3164 37.8163 38.4504 37.6352 38.5186C37.5481 38.5526 37.4552 38.5692 37.3617 38.5675C37.3183 38.5673 37.2751 38.5633 37.2324 38.5556C37.1921 38.5495 37.1524 38.5402 37.1136 38.5278C37.0656 38.5137 37.0192 38.4948 36.9751 38.4712C36.9344 38.4468 36.8959 38.4188 36.8602 38.3874L36.8121 38.3437L36.7724 38.3C36.7474 38.2721 36.7239 38.2429 36.7021 38.2124C36.6251 38.1039 36.5587 37.9882 36.5038 37.867C36.4507 37.753 36.4049 37.6392 36.3639 37.5257C36.3229 37.4121 36.286 37.2984 36.2517 37.1848L36.2029 37.0228C36.1882 36.9726 36.1706 36.9223 36.1527 36.8739C36.0809 36.6766 35.9892 36.4872 35.8788 36.3086C35.6585 35.9497 35.3695 35.6379 35.0283 35.391C34.3038 34.8666 33.5122 34.435 32.6946 34.0634C31.8823 33.6767 31.0449 33.3576 30.2307 32.9233L30.2285 32.9221C30.209 32.9118 30.1936 32.8952 30.1847 32.875C30.1759 32.8548 30.1741 32.8322 30.1797 32.8109C30.1852 32.7895 30.1979 32.7707 30.2155 32.7574C30.2331 32.7442 30.2547 32.7373 30.2768 32.7378L30.2759 32.7372Z" fill="#371A45"/>
<g opacity="0.35">
<path opacity="0.35" d="M31.0084 27.9372C30.9489 28.0409 30.8875 28.144 30.8241 28.2462C30.7718 28.33 30.7182 28.4151 30.6638 28.4975C30.4293 28.854 30.1724 29.1953 29.8946 29.5192C27.8481 31.9078 24.842 33.1493 21.816 33.0227C21.6234 33.0142 21.4309 33.0003 21.2384 32.9811C20.7059 32.9279 20.1785 32.832 19.6614 32.6942C18.7068 32.439 17.7946 32.0455 16.9538 31.5264C16.9144 31.5021 16.8757 31.477 16.8365 31.452C16.5015 30.0524 16.3936 29.095 16.3936 29.095L14.498 27.554L12.6641 26.0632C11.9413 23.8355 11.9958 21.3677 12.9321 19.1073L21.9444 27.8248L28.016 26.2915C28.016 26.2915 28.7066 26.7036 29.6833 27.5645L29.6732 27.4729C30.0536 27.5466 30.5094 27.7104 31.0084 27.9372Z" fill="#371A45"/>
</g>
<g opacity="0.7">
<path opacity="0.7" d="M13.0136 18.7955C12.8552 19.1931 12.721 19.5999 12.6116 20.0136C12.6992 19.5937 12.834 19.1851 13.0136 18.7955Z" fill="white"/>
</g>
<path d="M12.0725 24.7585C12.5908 26.3979 13.5224 27.8763 14.7775 29.0514C15.0413 29.2985 15.3182 29.5313 15.6069 29.7489C15.7483 29.8561 15.8948 29.9599 16.0443 30.0617C16.4886 30.3616 16.9562 30.6254 17.4425 30.8508C18.3378 31.267 19.2897 31.5487 20.2673 31.6867C20.459 31.7131 20.651 31.7344 20.8431 31.7505C24.359 32.0384 27.9227 30.4704 30.0339 27.3369C33.145 22.7214 31.9246 16.4581 27.31 13.3473C26.4451 12.7632 25.4946 12.3174 24.4926 12.0257C24.3787 11.9922 24.2633 11.9604 24.1476 11.9319C23.8383 11.8537 23.5273 11.7904 23.2146 11.7419C21.7777 11.5229 20.3106 11.6155 18.9127 12.0135C18.6923 12.0761 18.4738 12.1464 18.2573 12.2243C16.2446 12.9499 14.5153 14.2976 13.3202 16.0721C11.5306 18.727 11.1747 21.9268 12.0725 24.7585Z" fill="white"/>
<g opacity="0.35">
<path opacity="0.35" d="M30.0341 27.3366C27.9236 30.4706 24.3589 32.0386 20.8432 31.7502C20.6511 31.7343 20.4593 31.7131 20.2677 31.6865C18.755 31.4714 17.311 30.9159 16.0442 30.0618C15.8952 29.9594 15.7489 29.8561 15.6068 29.7491C15.3184 29.5311 15.0416 29.2981 14.7777 29.0511C13.5223 27.8761 12.5907 26.3977 12.0724 24.7582C11.7922 23.8749 11.6344 22.9573 11.6034 22.0312C12.2548 23.9312 13.4604 25.5926 15.0648 26.8011C15.206 26.9083 15.3525 27.0116 15.5021 27.1138C16.7679 27.9694 18.2121 28.5251 19.725 28.7385C19.917 28.765 20.109 28.7862 20.301 28.8022C23.8168 29.0906 27.3804 27.5226 29.4921 24.3886C30.6794 22.6328 31.2801 20.546 31.2078 18.4277C32.1975 21.3139 31.8706 24.6125 30.0341 27.3366Z" fill="#371A45"/>
</g>
<path d="M21.6669 32.0705C21.3855 32.0705 21.1031 32.0589 20.8198 32.0358C20.6228 32.0191 20.424 31.9973 20.2284 31.9703C19.2224 31.8284 18.243 31.5387 17.3217 31.1104C16.8219 30.8784 16.3413 30.6072 15.8844 30.2992C15.7153 30.1838 15.5684 30.0787 15.4342 29.9771C15.1376 29.7535 14.8532 29.5143 14.5819 29.2605C13.2923 28.0508 12.3344 26.5306 11.7996 24.8452C10.8363 21.8071 11.304 18.5511 13.083 15.9123C14.312 14.0871 16.0907 12.701 18.1609 11.9552C18.3787 11.8764 18.6063 11.8033 18.8354 11.7375C20.2729 11.3283 21.7816 11.2331 23.2591 11.4584C23.5794 11.5079 23.9022 11.5735 24.2189 11.6539C24.345 11.6849 24.4624 11.7169 24.5758 11.7509C25.6055 12.0507 26.5821 12.509 27.4707 13.1093C32.2095 16.3037 33.4662 22.7573 30.2723 27.4962C28.3376 30.3672 25.0973 32.0705 21.6669 32.0705ZM12.3453 24.6722C12.8503 26.2642 13.7551 27.7002 14.9732 28.8429C15.2297 29.083 15.4987 29.3092 15.7792 29.5206C15.9065 29.6169 16.0457 29.7166 16.2055 29.8257C17.4353 30.6562 18.8381 31.1959 20.3074 31.4037C20.4917 31.4291 20.6808 31.4501 20.8672 31.4656C24.3976 31.7554 27.8198 30.1116 29.7966 27.1776C32.8143 22.7009 31.6269 16.6034 27.1501 13.5854C26.31 13.0178 25.3865 12.5846 24.413 12.3013C24.3063 12.2691 24.198 12.2398 24.0792 12.2105C23.7777 12.1341 23.4734 12.0722 23.1712 12.0263C21.7751 11.8135 20.3496 11.9034 18.9914 12.2901C18.7748 12.3517 18.5604 12.4207 18.3549 12.4949C16.3995 13.2 14.7194 14.5095 13.5582 16.2335C11.8775 18.7266 11.4356 21.8029 12.3458 24.6735L12.3453 24.6722Z" fill="#371A45"/>
<path d="M21.6669 32.0705C21.3855 32.0705 21.1031 32.0589 20.8198 32.0358C20.6228 32.0191 20.424 31.9973 20.2284 31.9703C19.2224 31.8284 18.243 31.5387 17.3217 31.1104C16.8219 30.8784 16.3413 30.6072 15.8844 30.2992C15.7153 30.1838 15.5684 30.0787 15.4342 29.9771C15.1376 29.7535 14.8532 29.5143 14.5819 29.2605C13.2923 28.0508 12.3344 26.5306 11.7996 24.8452C10.8363 21.8071 11.304 18.5511 13.083 15.9123C14.312 14.0871 16.0907 12.701 18.1609 11.9552C18.3787 11.8764 18.6063 11.8033 18.8354 11.7375C20.2729 11.3283 21.7816 11.2331 23.2591 11.4584C23.5794 11.5079 23.9022 11.5735 24.2189 11.6539C24.345 11.6849 24.4624 11.7169 24.5758 11.7509C25.6055 12.0507 26.5821 12.509 27.4707 13.1093C32.2095 16.3037 33.4662 22.7573 30.2723 27.4962C28.3376 30.3672 25.0973 32.0705 21.6669 32.0705ZM12.3453 24.6722C12.8503 26.2642 13.7551 27.7002 14.9732 28.8429C15.2297 29.083 15.4987 29.3092 15.7792 29.5206C15.9065 29.6169 16.0457 29.7166 16.2055 29.8257C17.4353 30.6562 18.8381 31.1959 20.3074 31.4037C20.4917 31.4291 20.6808 31.4501 20.8672 31.4656C24.3976 31.7554 27.8198 30.1116 29.7966 27.1776C32.8143 22.7009 31.6269 16.6034 27.1501 13.5854C26.31 13.0178 25.3865 12.5846 24.413 12.3013C24.3063 12.2691 24.198 12.2398 24.0792 12.2105C23.7777 12.1341 23.4734 12.0722 23.1712 12.0263C21.7751 11.8135 20.3496 11.9034 18.9914 12.2901C18.7748 12.3517 18.5604 12.4207 18.3549 12.4949C16.3995 13.2 14.7194 14.5095 13.5582 16.2335C11.8775 18.7266 11.4356 21.8029 12.3458 24.6735L12.3453 24.6722Z" fill="#371A45"/>
<path d="M13.1622 27.0997C18.1842 32.2629 26.626 30.8852 28.3826 23.9713C29.5777 19.2673 25.8947 14.4652 21.3031 13.6066C17.9613 12.9818 14.4255 13.8337 12.0378 18.7551C12.0378 18.7551 11.3175 21.097 11.6604 22.8139C12.0033 24.5308 12.6271 26.1425 12.6271 26.1425L13.1622 27.0997Z" fill="#371A45"/>
<g opacity="0.35">
<path opacity="0.35" d="M28.3826 23.9718C26.626 30.886 18.1841 32.263 13.1622 27.1003L13.054 26.9062C19.2161 29.2679 26.3061 26.6662 28.2127 19.7084C28.6559 21.0593 28.7511 22.52 28.3826 23.9718Z" fill="#111A28"/>
</g>
<path d="M20.3394 31.5417C19.3335 31.5408 18.3325 31.401 17.3648 31.1263L17.3224 31.1106C16.8223 30.8787 16.3415 30.6074 15.8844 30.2992C15.7153 30.1838 15.5684 30.0788 15.4342 29.9771C15.1376 29.7535 14.8532 29.5143 14.5819 29.2605C13.2924 28.0508 12.3344 26.5306 11.7996 24.8452C10.8363 21.8071 11.304 18.5511 13.083 15.9123C14.1087 14.388 15.522 13.1645 17.1775 12.3677L17.2043 12.3549L17.2333 12.3477C18.5301 12.0295 19.9676 12.0141 21.5057 12.3017C24.246 12.8141 26.8215 14.5904 28.395 17.0531C29.8415 19.3171 30.3007 21.892 29.6879 24.3039C29.0218 26.9243 27.5039 28.9815 25.2981 30.2533C23.8209 31.1051 22.1029 31.5417 20.3394 31.5417ZM17.5422 30.5816C20.124 31.3066 22.8456 31.0066 25.0127 29.7575C27.0815 28.5646 28.5064 26.63 29.1332 24.163C29.7067 21.9063 29.2734 19.4908 27.9128 17.3615C26.422 15.0296 23.9884 13.3484 21.4007 12.8645C19.9547 12.5941 18.6083 12.605 17.3986 12.8968C15.8463 13.65 14.5211 14.8009 13.5579 16.2324C11.8772 18.7255 11.4353 21.8018 12.3455 24.6724C12.8505 26.2644 13.7552 27.7004 14.9734 28.8431C15.2298 29.0832 15.4989 29.3094 15.7794 29.5208C15.9067 29.6171 16.0459 29.7168 16.2057 29.8259C16.6309 30.1123 17.0779 30.365 17.5425 30.5816H17.5422Z" fill="#371A45"/>
<path d="M20.3164 30.5101C17.6493 30.5101 14.9749 29.3738 12.9572 27.2995L12.9309 27.2725L12.3604 26.2454C12.3346 26.1784 11.7239 24.5907 11.3798 22.8696C11.0266 21.102 11.7341 18.7691 11.7651 18.6706L11.7818 18.6299C13.8756 14.3132 17.0979 12.5285 21.3573 13.325C23.8038 13.7824 26.1029 15.3685 27.5074 17.5661C28.7991 19.5875 29.209 21.8876 28.6618 24.0415C27.8717 27.1513 25.6944 29.3959 22.6881 30.2001C21.9145 30.4066 21.1171 30.5109 20.3164 30.5101ZM13.3937 26.9271C15.8681 29.4532 19.3687 30.4949 22.5392 29.6477C25.3394 28.8988 27.3684 26.8042 28.1059 23.9013C28.6139 21.9018 28.2296 19.7617 27.024 17.8749C25.7031 15.8075 23.545 14.3172 21.2513 13.8884C17.2832 13.1466 14.2739 14.8192 12.3068 18.8598C12.2398 19.0893 11.6342 21.2156 11.9424 22.7582C12.2573 24.3327 12.8196 25.8402 12.8887 26.0215L13.3937 26.9271Z" fill="#371A45"/>
<path d="M32.8175 24.6359C33.1751 22.6778 32.3116 20.8798 30.8887 20.62C29.4659 20.3601 28.0226 21.7368 27.665 23.6949C27.3074 25.653 28.1709 27.451 29.5937 27.7109C31.0165 27.9707 32.4599 26.594 32.8175 24.6359Z" fill="white"/>
<path d="M29.9363 28.0263C29.8765 28.0263 29.8163 28.0238 29.7562 28.019C29.1185 27.9669 28.5477 27.6505 28.1055 27.1044C27.4601 26.3073 27.1811 25.1447 27.3397 23.9132C27.6127 21.7952 29.1301 20.1779 30.7232 20.3083C31.3609 20.3604 31.9317 20.6768 32.3739 21.2228C33.0193 22.0198 33.2983 23.1826 33.1397 24.414C32.8769 26.452 31.4615 28.0263 29.9363 28.0263ZM30.5393 20.8731C29.2974 20.8731 28.1343 22.232 27.9084 23.9864C27.7715 25.047 28.0119 26.078 28.5512 26.7441C28.8926 27.1659 29.3256 27.4093 29.8038 27.4476C31.0966 27.5528 32.3384 26.159 32.5727 24.34C32.7096 23.2792 32.4692 22.2482 31.9299 21.5821C31.5885 21.1605 31.1555 20.917 30.6773 20.8786C30.6305 20.8749 30.5842 20.8731 30.5383 20.8731H30.5393Z" fill="#371A45"/>
<path d="M33.1678 24.82C33.4799 23.3897 32.7996 22.0266 31.6482 21.7753C30.4968 21.5241 29.3105 22.4799 28.9984 23.9101C28.6862 25.3404 29.3666 26.7036 30.518 26.9548C31.6693 27.2061 32.8557 26.2503 33.1678 24.82Z" fill="white"/>
<g opacity="0.35">
<path opacity="0.35" d="M28.8842 25.5136C28.8203 24.9754 28.9039 24.4178 29.0977 23.9091C29.3466 25.124 30.3437 25.7349 31.4152 25.2836C32.1079 24.9922 32.6715 24.3237 32.9715 23.5363C32.9882 23.6128 33.0001 23.6927 33.01 23.7743C33.172 25.1448 32.3797 26.6451 31.2402 27.1253C30.1007 27.6055 29.0461 26.8833 28.8842 25.5136Z" fill="#371A45"/>
</g>
<path d="M30.7765 27.6963C30.7348 27.6963 30.6931 27.6948 30.6513 27.6916C30.1746 27.6565 29.7457 27.4203 29.411 27.0086C28.8884 26.3657 28.6593 25.3582 28.7981 24.3135C29.0348 22.532 30.2081 21.2096 31.4664 21.3022C31.9431 21.3374 32.3721 21.5737 32.7067 21.9854C33.2293 22.6283 33.4583 23.6358 33.3196 24.6805C33.0908 26.4027 31.9876 27.6963 30.7765 27.6963ZM31.346 21.8703C30.446 21.8703 29.5505 22.9975 29.3656 24.3889C29.2473 25.2803 29.4303 26.1247 29.8554 26.6474C30.0882 26.9339 30.378 27.0975 30.6929 27.1208C31.617 27.1891 32.5613 26.0371 32.7516 24.6051C32.87 23.7137 32.687 22.8693 32.262 22.3466C32.0292 22.0601 31.7394 21.8965 31.4245 21.8732C31.398 21.8712 31.3719 21.8703 31.3458 21.8703H31.346Z" fill="#371A45"/>
<g opacity="0.7">
<path opacity="0.7" d="M23.3367 15.791C23.3367 15.791 18.7918 15.2383 15.8379 17.3613L15.8285 17.368C15.2077 17.8167 14.7175 18.4226 14.4084 19.1234C13.9986 20.0494 13.8518 20.7482 13.7463 21.3679C13.4264 23.2525 13.6291 24.1953 13.6291 24.1953C12.7262 23.0176 12.3142 21.7847 12.5651 20.2125C12.5902 20.0576 12.6219 19.8986 12.6596 19.7367C12.6681 19.6993 12.6773 19.6624 12.6874 19.6256C12.6874 19.6256 12.6874 19.6243 12.6874 19.6234C12.8135 19.2144 12.9639 18.8133 13.138 18.4223C13.7547 17.0374 14.8967 15.2884 16.8623 14.7205C20.5364 13.6574 23.5246 15.6205 23.3367 15.791Z" fill="white"/>
</g>
<g opacity="0.7">
<path opacity="0.7" d="M26.0461 22.5633C26.7868 22.4941 27.3219 21.7382 27.2412 20.875C27.1605 20.0117 26.4946 19.3681 25.7539 19.4373C25.0132 19.5066 24.4781 20.2625 24.5588 21.1257C24.6395 21.9889 25.3054 22.6326 26.0461 22.5633Z" fill="white"/>
</g>
<g opacity="0.7">
<path opacity="0.7" d="M26.2796 24.4793C26.582 24.425 26.7758 24.0953 26.7125 23.7429C26.6492 23.3906 26.3528 23.1489 26.0504 23.2032C25.7481 23.2575 25.5542 23.5872 25.6175 23.9396C25.6808 24.2919 25.9772 24.5336 26.2796 24.4793Z" fill="white"/>
</g>
<path d="M23.3259 37.3578C23.3515 37.473 23.721 38.3666 23.721 38.3666L24.3773 38.2202C24.8295 38.1197 25.091 37.5696 24.9622 36.9924C24.8334 36.4152 24.3627 36.0293 23.9108 36.1301L23.2545 36.2765C23.2545 36.2765 23.284 37.1702 23.3259 37.3578Z" fill="#22A7F0"/>
<g opacity="0.35">
<path opacity="0.35" d="M23.3259 37.3578C23.3515 37.473 23.721 38.3666 23.721 38.3666L24.3773 38.2202C24.8295 38.1197 25.091 37.5696 24.9622 36.9924C24.8334 36.4152 24.3627 36.0293 23.9108 36.1301L23.2545 36.2765C23.2545 36.2765 23.284 37.1702 23.3259 37.3578Z" fill="#371A45"/>
</g>
<path d="M23.7209 38.534C23.6878 38.534 23.6554 38.5242 23.6279 38.5058C23.6003 38.4873 23.5788 38.4611 23.5662 38.4305C23.4782 38.2178 23.1891 37.5141 23.1623 37.3942C23.1183 37.1969 23.0901 36.3751 23.0871 36.282C23.0858 36.243 23.0982 36.2048 23.1221 36.1739C23.146 36.1431 23.1799 36.1215 23.2179 36.113L23.8742 35.9666C24.4156 35.8458 24.9769 36.2897 25.1256 36.956C25.196 37.2714 25.1651 37.5915 25.0387 37.8568C24.9055 38.1362 24.6836 38.3233 24.4137 38.3836L23.7575 38.53C23.7455 38.5327 23.7332 38.534 23.7209 38.534ZM23.4891 37.321C23.5045 37.3845 23.6622 37.7821 23.8221 38.1724L24.3414 38.0565C24.5089 38.0193 24.6491 37.8972 24.7368 37.7128C24.8313 37.5146 24.8541 37.2717 24.7993 37.0289C24.6908 36.5431 24.3089 36.2128 23.9479 36.2935L23.4275 36.4096C23.4402 36.7505 23.4647 37.2108 23.4891 37.321Z" fill="#371A45"/>
<path d="M23.7195 38.3681C24.1714 38.2673 24.4333 37.7177 24.3046 37.1406C24.1758 36.5635 23.705 36.1774 23.2531 36.2782C22.8013 36.3791 22.5393 36.9287 22.6681 37.5058C22.7969 38.0829 23.2676 38.469 23.7195 38.3681Z" fill="#22A7F0"/>
<g opacity="0.35">
<path opacity="0.35" d="M24.3059 37.1392C24.4349 37.7159 24.1731 38.266 23.7213 38.3668C23.2696 38.4677 22.7983 38.0821 22.6696 37.504C22.6524 37.4277 22.6421 37.3501 22.6388 37.2719C22.8435 37.6424 23.2058 37.8581 23.5567 37.7793C23.9468 37.6922 24.1959 37.2702 24.1724 36.7843C24.2335 36.8957 24.2785 37.0152 24.3059 37.1392Z" fill="#371A45"/>
</g>
<path d="M24.3059 37.1392C24.3147 37.1779 24.3215 37.2171 24.3263 37.2565C24.1357 36.8243 23.7401 36.5617 23.3584 36.6471C22.9374 36.7414 22.6807 37.2253 22.7533 37.758C22.7172 37.6762 22.6891 37.5911 22.6696 37.5039C22.5406 36.927 22.8026 36.3771 23.2543 36.2762C23.7061 36.1754 24.1768 36.5618 24.3059 37.1392Z" fill="white"/>
<path d="M23.5739 38.5505C23.3632 38.5505 23.1532 38.4712 22.9679 38.3193C22.7406 38.1327 22.5765 37.8563 22.5061 37.5408C22.3574 36.8744 22.6768 36.2343 23.218 36.1132C23.7592 35.9921 24.3206 36.4363 24.4694 37.1026C24.5399 37.4182 24.5089 37.7381 24.3824 38.0036C24.2484 38.283 24.0273 38.4699 23.7575 38.5302C23.6972 38.5436 23.6357 38.5504 23.5739 38.5505ZM23.4011 36.4281C23.364 36.4281 23.3271 36.4321 23.291 36.4401C22.93 36.5209 22.7245 36.9818 22.8331 37.4679C22.8873 37.7106 23.0106 37.921 23.1805 38.0604C23.3382 38.1898 23.5173 38.2406 23.6845 38.2032C23.8516 38.1659 23.9922 38.0438 24.0799 37.8595C24.1744 37.6612 24.1972 37.4183 24.1424 37.1756C24.0449 36.7388 23.7267 36.4281 23.4011 36.4281Z" fill="#371A45"/>
<path d="M22.4015 40.7694C22.355 40.7693 22.3099 40.7541 22.2729 40.726C22.236 40.698 22.2092 40.6586 22.1966 40.6139L21.6415 38.6361C21.6274 38.5835 21.6006 38.5352 21.5635 38.4954C21.5264 38.4555 21.4802 38.4253 21.4288 38.4074L20.6529 38.1562C20.5648 38.1273 20.4854 38.0765 20.4221 38.0085C20.3589 37.9406 20.314 37.8578 20.2915 37.7678L19.5692 34.9802C19.555 34.9256 19.5631 34.8675 19.5918 34.8188C19.6204 34.7702 19.6672 34.7349 19.7219 34.7207C19.7765 34.7065 19.8346 34.7146 19.8833 34.7433C19.9319 34.7719 19.9672 34.8187 19.9814 34.8734L20.7037 37.6609C20.7085 37.6814 20.7184 37.7004 20.7325 37.7161C20.7465 37.7319 20.7642 37.7439 20.7841 37.751L21.5599 38.0023C21.6784 38.0414 21.7853 38.1094 21.8711 38.2C21.9569 38.2906 22.0189 38.4011 22.0515 38.5215L22.6066 40.4993C22.6154 40.531 22.6168 40.5643 22.6106 40.5966C22.6045 40.6288 22.5909 40.6592 22.571 40.6854C22.5512 40.7116 22.5255 40.7329 22.4961 40.7475C22.4667 40.7621 22.4343 40.7698 22.4015 40.7699V40.7694Z" fill="#371A45"/>
</g>
</svg>
