<svg width="57" height="56" viewBox="0 0 57 56" fill="none" xmlns="http://www.w3.org/2000/svg">
<circle cx="28.5" cy="28" r="26" fill="#C4C4C4" stroke="#475569" stroke-width="4"/>
<mask id="mask0_2_12371" style="mask-type:alpha" maskUnits="userSpaceOnUse" x="4" y="4" width="49" height="48">
<circle cx="28.5" cy="28" r="24" fill="#C4C4C4"/>
</mask>
<g mask="url(#mask0_2_12371)">
<path d="M64.5 -2.46161H-9.34619V71.3846H64.5V-2.46161Z" fill="#81B1FF"/>
<path d="M47.7862 44.8721C47.765 44.9681 47.5496 45.0083 47.2449 44.9895C47.1699 44.9849 47.0953 45.0042 47.0319 45.0446C46.9685 45.085 46.9196 45.1445 46.8921 45.2145C46.7814 45.4986 46.6534 45.6772 46.5574 45.6559C46.4614 45.6347 46.421 45.4191 46.4398 45.1146C46.4444 45.0396 46.4252 44.965 46.3847 44.9015C46.3443 44.8381 46.2848 44.7891 46.2148 44.7617C45.9305 44.6509 45.7514 44.5229 45.7717 44.4268C45.792 44.3306 46.0091 44.2898 46.3135 44.309C46.3887 44.3137 46.4634 44.2944 46.5269 44.254C46.5904 44.2135 46.6394 44.154 46.6669 44.0839C46.7777 43.7994 46.9056 43.6211 47.0016 43.6423C47.0976 43.6636 47.138 43.8792 47.119 44.184C47.1144 44.2591 47.1338 44.3337 47.1743 44.3972C47.2148 44.4606 47.2744 44.5095 47.3444 44.537C47.6293 44.6479 47.8076 44.7753 47.7862 44.8721Z" fill="white"/>
<path d="M53.9954 12.2309C53.9954 12.3468 53.7576 12.4478 53.4026 12.5035C53.3151 12.5173 53.2342 12.5584 53.1715 12.6211C53.1089 12.6837 53.0677 12.7646 53.0539 12.8521C52.9985 13.2071 52.8969 13.4449 52.781 13.4449C52.6651 13.4449 52.5639 13.2071 52.5083 12.8521C52.4945 12.7646 52.4533 12.6838 52.3906 12.6211C52.328 12.5585 52.2471 12.5173 52.1596 12.5035C51.8044 12.4482 51.566 12.3468 51.566 12.2309C51.566 12.1149 51.8033 12.0123 52.1585 11.9569C52.2461 11.9431 52.327 11.9019 52.3897 11.8393C52.4525 11.7766 52.4937 11.6957 52.5076 11.6082C52.563 11.2528 52.6643 11.015 52.7803 11.015C52.8962 11.015 52.9974 11.2528 53.0531 11.6082C53.0669 11.6957 53.1081 11.7766 53.1708 11.8393C53.2335 11.902 53.3145 11.9431 53.402 11.9569C53.7569 12.0123 53.9954 12.1142 53.9954 12.2309Z" fill="white"/>
<path d="M46.1618 29.7765C46.2948 29.6435 46.2948 29.4278 46.1618 29.2948C46.0287 29.1618 45.8131 29.1618 45.6801 29.2948C45.547 29.4278 45.547 29.6435 45.6801 29.7765C45.8131 29.9095 46.0287 29.9095 46.1618 29.7765Z" fill="white"/>
<path d="M37.2236 52.28C37.4394 52.2238 37.5687 52.0032 37.5124 51.7874C37.4561 51.5717 37.2356 51.4424 37.0198 51.4987C36.8041 51.555 36.6748 51.7755 36.7311 51.9913C36.7873 52.207 37.0079 52.3363 37.2236 52.28Z" fill="white"/>
<path d="M6.08874 20.5184C6.15812 20.2621 6.00662 19.9981 5.75034 19.9287C5.49407 19.8593 5.23006 20.0108 5.16067 20.2671C5.09128 20.5234 5.24279 20.7874 5.49907 20.8567C5.75534 20.9261 6.01935 20.7746 6.08874 20.5184Z" fill="white"/>
<path d="M47.6007 5.999C47.7337 5.86598 47.7337 5.65031 47.6007 5.5173C47.4677 5.38428 47.252 5.38428 47.119 5.51729C46.986 5.65031 46.986 5.86598 47.119 5.999C47.252 6.13202 47.4677 6.13202 47.6007 5.999Z" fill="white"/>
<path d="M13.9594 7.45208C14.2221 7.41384 14.4041 7.16986 14.3659 6.90712C14.3277 6.64438 14.0837 6.46239 13.8209 6.50062C13.5582 6.53886 13.3762 6.78284 13.4144 7.04558C13.4527 7.30832 13.6967 7.49031 13.9594 7.45208Z" fill="white"/>
<path d="M17.6531 15.872C17.7639 15.7923 17.7891 15.6378 17.7094 15.527C17.6297 15.4162 17.4752 15.391 17.3644 15.4707C17.2535 15.5504 17.2283 15.7049 17.3081 15.8157C17.3878 15.9266 17.5423 15.9518 17.6531 15.872Z" fill="white"/>
<path d="M9.14033 25.9858C9.14278 26.0346 9.13071 26.083 9.10563 26.125C9.08054 26.167 9.04358 26.2006 8.99941 26.2215C8.95525 26.2425 8.90586 26.2499 8.85749 26.2427C8.80912 26.2356 8.76394 26.2143 8.72768 26.1816C8.69141 26.1488 8.66568 26.106 8.65373 26.0586C8.64179 26.0112 8.64417 25.9613 8.66057 25.9152C8.67698 25.8692 8.70667 25.829 8.7459 25.7998C8.78512 25.7707 8.83212 25.7538 8.88094 25.7513C8.91337 25.7497 8.9458 25.7544 8.97639 25.7653C9.00698 25.7762 9.03512 25.793 9.0592 25.8148C9.08329 25.8366 9.10285 25.8629 9.11677 25.8922C9.13069 25.9215 9.1387 25.9533 9.14033 25.9858Z" fill="white"/>
<path d="M7.09648 42.5334C7.09644 42.5723 7.08486 42.6104 7.0632 42.6427C7.04154 42.6751 7.01076 42.7003 6.97478 42.7151C6.93879 42.73 6.89921 42.7338 6.86104 42.7262C6.82286 42.7185 6.78782 42.6998 6.76033 42.6722C6.73284 42.6446 6.71414 42.6095 6.7066 42.5713C6.69907 42.5331 6.70303 42.4936 6.71799 42.4576C6.73294 42.4217 6.75822 42.391 6.79063 42.3694C6.82304 42.3478 6.86112 42.3364 6.90005 42.3364C6.9522 42.3366 7.00216 42.3574 7.03898 42.3943C7.0758 42.4312 7.09648 42.4813 7.09648 42.5334Z" fill="white"/>
<path d="M35.3219 34.0661C35.273 34.0661 35.226 34.0467 35.1914 34.0121C35.1568 33.9774 35.1373 33.9305 35.1373 33.8815V25.9942C35.1373 25.9452 35.1568 25.8983 35.1914 25.8636C35.226 25.829 35.273 25.8096 35.3219 25.8096C35.3709 25.8096 35.4179 25.829 35.4525 25.8636C35.4871 25.8983 35.5066 25.9452 35.5066 25.9942V33.8815C35.5066 33.9305 35.4871 33.9774 35.4525 34.0121C35.4179 34.0467 35.3709 34.0661 35.3219 34.0661Z" fill="#371A45"/>
<path d="M34.5739 33.7373C34.5301 33.7372 34.4878 33.7217 34.4545 33.6933C34.4211 33.665 34.399 33.6257 34.3919 33.5826L32.4955 22.081C32.4875 22.0327 32.4991 21.9832 32.5277 21.9434C32.5562 21.9036 32.5994 21.8768 32.6477 21.8688C32.696 21.8609 32.7455 21.8724 32.7853 21.901C32.8251 21.9295 32.852 21.9727 32.8599 22.021L34.7561 33.5226C34.7641 33.5709 34.7525 33.6204 34.724 33.6601C34.6954 33.6999 34.6523 33.7267 34.604 33.7347C34.5941 33.7365 34.584 33.7373 34.5739 33.7373Z" fill="#371A45"/>
<path d="M35.8255 34.5469C35.8141 34.547 35.8028 34.5459 35.7916 34.5438C35.7434 34.5348 35.7008 34.5071 35.6731 34.4667C35.6454 34.4264 35.6349 34.3766 35.6439 34.3285L38.2451 20.3716C38.2494 20.3476 38.2584 20.3248 38.2716 20.3043C38.2848 20.2839 38.3019 20.2662 38.3219 20.2524C38.342 20.2386 38.3645 20.2288 38.3883 20.2238C38.4122 20.2187 38.4367 20.2184 38.4607 20.2229C38.4846 20.2273 38.5074 20.2365 38.5278 20.2498C38.5481 20.2631 38.5657 20.2803 38.5794 20.3004C38.5931 20.3206 38.6027 20.3432 38.6076 20.367C38.6125 20.3909 38.6127 20.4154 38.608 20.4393L36.0068 34.3963C35.9989 34.4386 35.9764 34.4768 35.9433 34.5043C35.9102 34.5318 35.8686 34.5469 35.8255 34.5469Z" fill="#371A45"/>
<path d="M20.4716 43.6061L20.4144 44.8061L20.3854 45.4179L19.8831 55.9659C19.8831 55.9659 19.1658 55.8908 18.2121 55.7128C18.0255 55.6779 17.83 55.6389 17.6289 55.5965C16.1306 55.278 14.3308 54.7297 13.7262 53.867C12.8215 52.5773 13.3316 46.8712 14.5346 44.7285C15.0857 43.7464 17.3094 43.5572 18.873 43.5509C19.0479 43.5498 19.2146 43.5509 19.3695 43.5546C20.023 43.5681 20.4716 43.6061 20.4716 43.6061Z" fill="white"/>
<g opacity="0.35">
<path opacity="0.35" d="M20.4139 44.8068L20.3849 45.4186L19.9861 53.7939L19.8826 55.9666L19.8392 55.9618L19.8113 55.9585L19.7851 55.9553C19.7781 55.9553 19.7711 55.9537 19.764 55.9531C19.7615 55.9531 19.7581 55.9531 19.7555 55.952C19.7426 55.9505 19.7282 55.9489 19.7133 55.9467C19.7098 55.9465 19.7063 55.9462 19.7029 55.9456L19.6638 55.9408C19.6453 55.9387 19.6258 55.936 19.6055 55.9334C19.5909 55.9312 19.5754 55.9295 19.5599 55.9275L19.5111 55.921C19.4903 55.9182 19.4681 55.9151 19.4458 55.9123C19.4002 55.9061 19.3518 55.8996 19.3008 55.892C19.256 55.8861 19.2085 55.8791 19.1594 55.8717C19.1026 55.863 19.0431 55.8545 18.9815 55.8449C18.7536 55.8095 18.493 55.7661 18.2116 55.7135C18.1562 55.7033 18.1008 55.6926 18.0454 55.6819L17.9258 55.6583C17.8289 55.6398 17.7292 55.6186 17.629 55.5972C16.1301 55.2787 14.3308 54.7304 13.7267 53.8677C12.9822 52.8058 13.1954 48.7493 13.9667 46.1536C13.6119 48.4485 13.6285 50.9488 14.1898 51.7493C14.4667 52.1449 15.036 52.4759 15.7184 52.7495C16.0091 52.866 16.3114 52.6147 16.2587 52.3064C16.2587 52.304 16.2578 52.3014 16.2575 52.299C16.1631 51.733 16.1367 51.0939 16.2183 50.3547C16.393 48.7705 16.8691 46.5163 18.7931 44.8635C18.8378 44.824 19.5514 44.8133 20.4139 44.8068Z" fill="#371A45"/>
</g>
<path d="M20.1637 56.2933L19.8526 56.2608C19.6405 56.2387 14.6479 55.6985 13.4834 54.0377C12.7975 53.0592 12.9744 50.3878 13.0451 49.5923C13.1884 47.9758 13.5871 45.8112 14.2759 44.5848C15.2149 42.9128 19.9582 43.2659 20.496 43.311L20.7798 43.3352L20.1637 56.2933ZM18.9683 43.8441C17.3509 43.8441 15.2605 44.0402 14.7921 44.8743C13.569 47.0528 13.1985 52.5999 13.9682 53.6989C14.7495 54.8138 18.0491 55.4408 19.6032 55.6374L20.1628 43.8807C19.8312 43.8585 19.4178 43.8441 18.9683 43.8441Z" fill="#371A45"/>
<path d="M14.2662 49.6596L16.3132 50.0076C16.402 50.0225 16.4834 50.0666 16.5445 50.1328C16.6056 50.1991 16.643 50.2837 16.6507 50.3735C16.7086 51.05 16.7614 52.619 16.0665 53.0702C15.4898 53.445 14.6226 53.3133 14.1522 52.833C13.6263 52.2957 13.7131 50.7699 13.7928 50.018C13.7985 49.9626 13.8156 49.909 13.8429 49.8605C13.8703 49.812 13.9073 49.7696 13.9517 49.736C13.996 49.7024 14.0469 49.6783 14.101 49.6651C14.1551 49.652 14.2113 49.6501 14.2662 49.6596Z" fill="white"/>
<g opacity="0.35">
<path opacity="0.35" d="M16.6511 50.3737C16.7092 51.0499 16.7618 52.619 16.0668 53.0702C15.4898 53.445 14.6231 53.3133 14.1525 52.8328C13.8292 52.5021 13.7375 51.7978 13.7334 51.1297C13.7952 51.469 13.9158 51.7513 14.0807 51.9446C15.0252 53.0523 15.9124 51.9339 15.9124 51.9339C15.9124 51.9339 16.0199 52.2355 16.1256 52.2619C16.5687 52.3727 16.6068 50.9595 16.6099 50.2278C16.6328 50.2734 16.6468 50.3229 16.6511 50.3737Z" fill="#371A45"/>
</g>
<path d="M15.2889 53.5819C14.7935 53.5819 14.2886 53.3945 13.9412 53.0398C13.3689 52.4563 13.3853 51.0574 13.4981 49.9868C13.5082 49.8914 13.5378 49.799 13.585 49.7154C13.6323 49.6318 13.6961 49.5588 13.7726 49.5008C13.8492 49.4429 13.9367 49.4012 14.03 49.3784C14.1233 49.3556 14.2202 49.3521 14.3148 49.3682L16.3619 49.7162C16.5152 49.7423 16.6556 49.8184 16.761 49.9328C16.8664 50.0472 16.9309 50.1934 16.9443 50.3483C17.0202 51.2345 17.0278 52.7978 16.2265 53.3182C15.954 53.4955 15.6236 53.5819 15.2889 53.5819ZM14.1976 49.9494C14.1734 49.9495 14.1499 49.9574 14.1306 49.9721C14.1184 49.9813 14.1083 49.9929 14.1009 50.0061C14.0934 50.0194 14.0887 50.0341 14.0872 50.0492C13.9515 51.326 14.0575 52.3135 14.3641 52.6263C14.7461 53.0155 15.4661 53.1078 15.9059 52.8225C16.2906 52.5726 16.4632 51.6439 16.3565 50.3989C16.3544 50.3744 16.3442 50.3512 16.3275 50.3331C16.3108 50.315 16.2885 50.303 16.2642 50.299L14.217 49.9508C14.2106 49.9498 14.2041 49.9493 14.1976 49.9494Z" fill="#371A45"/>
<path d="M14.9504 53.0919C14.97 53.0856 14.989 53.0779 15.0075 53.0688C15.0294 53.0581 15.0518 53.0468 15.0737 53.0336C15.1188 53.0075 15.162 52.9784 15.203 52.9462C15.2884 52.8805 15.3661 52.8052 15.4345 52.7217C15.5776 52.5483 15.6894 52.3512 15.7651 52.1395C15.8436 51.9248 15.8931 51.6964 15.9313 51.463C15.966 51.231 15.9968 50.9948 15.9699 50.7591C16.0275 50.9906 16.0276 51.2332 16.0232 51.4715C16.0158 51.7097 15.9963 51.9515 15.9425 52.1915C15.8889 52.4367 15.7931 52.6708 15.6595 52.8833C15.5908 52.9933 15.5098 53.0951 15.4182 53.187C15.3715 53.2344 15.3215 53.2785 15.2687 53.319C15.2425 53.3398 15.2133 53.3596 15.1851 53.3786C15.1528 53.4001 15.1189 53.4192 15.0837 53.4356L15.068 53.4428C15.0458 53.4532 15.0218 53.4591 14.9973 53.4601C14.9728 53.4612 14.9484 53.4574 14.9254 53.449C14.9024 53.4406 14.8812 53.4278 14.8632 53.4112C14.8451 53.3946 14.8305 53.3747 14.8202 53.3525C14.8098 53.3303 14.804 53.3062 14.8029 53.2818C14.8019 53.2573 14.8056 53.2329 14.814 53.2098C14.8224 53.1868 14.8353 53.1657 14.8518 53.1476C14.8684 53.1296 14.8883 53.115 14.9105 53.1046C14.9233 53.099 14.9367 53.0947 14.9504 53.0919Z" fill="#371A45"/>
<path d="M17.6357 45.0123C17.3881 44.9754 17.1356 44.9444 16.8851 44.9174C16.6345 44.8904 16.3829 44.8677 16.1326 44.8522C15.8822 44.8367 15.6321 44.8256 15.3853 44.8279C15.1384 44.8301 14.8936 44.8404 14.6667 44.8764C14.6283 44.8825 14.5892 44.8809 14.5514 44.8718C14.5136 44.8627 14.478 44.8463 14.4466 44.8235C14.4151 44.8006 14.3885 44.7718 14.3682 44.7386C14.348 44.7055 14.3344 44.6687 14.3283 44.6303C14.3223 44.5919 14.3238 44.5527 14.3329 44.515C14.342 44.4772 14.3584 44.4416 14.3813 44.4102C14.4041 44.3787 14.433 44.3521 14.4661 44.3318C14.4992 44.3115 14.536 44.298 14.5744 44.2919C14.5837 44.2904 14.5929 44.2893 14.6025 44.2888C14.8824 44.2714 15.1469 44.2866 15.4093 44.3087C15.6716 44.3309 15.9282 44.3669 16.1846 44.4069C16.4411 44.447 16.6933 44.4941 16.9453 44.5452C17.1973 44.5964 17.447 44.6514 17.6989 44.7134C17.7371 44.7226 17.7703 44.7461 17.7916 44.7792C17.8129 44.8123 17.8206 44.8523 17.813 44.8909C17.8055 44.9295 17.7834 44.9637 17.7512 44.9864C17.7191 45.009 17.6794 45.0184 17.6405 45.0125L17.6357 45.0123Z" fill="#371A45"/>
<path d="M36.9482 10.0589C36.9394 10.0785 36.9326 10.0989 36.9279 10.1198L36.9482 10.0589Z" fill="#D66B09"/>
<path d="M37.3198 16.5339L38.1386 17.5388C38.192 17.6041 38.2272 17.6824 38.2408 17.7658C38.2543 17.8491 38.2457 17.9345 38.2158 18.0135C38.1858 18.0924 38.1356 18.1621 38.0702 18.2155C38.0048 18.2689 37.9265 18.3041 37.8432 18.3177L36.5634 18.5244C36.4801 18.5379 36.3946 18.5292 36.3156 18.4991C36.2367 18.4691 36.1671 18.4188 36.1137 18.3533C36.0604 18.2878 36.0252 18.2094 36.0118 18.1261C35.9983 18.0427 36.007 17.9572 36.0371 17.8783L36.4986 16.6666C36.5289 16.5881 36.5791 16.5188 36.6445 16.4657C36.7099 16.4127 36.788 16.3777 36.8711 16.3642C36.9542 16.3508 37.0393 16.3594 37.1181 16.3892C37.1968 16.4189 37.2664 16.4688 37.3198 16.5339Z" fill="#E25A5A"/>
<g opacity="0.35">
<path opacity="0.35" d="M37.3573 16.5228L38.1824 17.5227C38.2361 17.5878 38.2718 17.666 38.2858 17.7493C38.2998 17.8326 38.2916 17.9181 38.262 17.9972C38.2325 18.0764 38.1826 18.1463 38.1175 18.2001C38.0523 18.2538 37.9742 18.2895 37.8909 18.3034L36.6126 18.5179C36.5293 18.5319 36.4438 18.5238 36.3646 18.4942C36.2855 18.4647 36.2155 18.4148 36.1618 18.3497C36.108 18.2845 36.0724 18.2064 36.0584 18.1231C36.0444 18.0398 36.0526 17.9542 36.0822 17.8751L36.5354 16.6607C36.565 16.5816 36.6149 16.5117 36.68 16.458C36.7452 16.4042 36.8233 16.3686 36.9066 16.3546C36.9899 16.3407 37.0754 16.3488 37.1545 16.3784C37.2336 16.4079 37.3035 16.4577 37.3573 16.5228Z" fill="#371A45"/>
</g>
<path d="M36.4824 18.85C36.3531 18.8493 36.2259 18.8173 36.1116 18.7568C35.9974 18.6962 35.8995 18.6089 35.8264 18.5022C35.7532 18.3956 35.707 18.2728 35.6916 18.1444C35.6762 18.016 35.6922 17.8858 35.7381 17.7649L36.1996 16.5532C36.2495 16.4219 36.333 16.306 36.4419 16.2172C36.5508 16.1284 36.6811 16.0699 36.8197 16.0474C36.9584 16.025 37.1006 16.0394 37.2319 16.0893C37.3632 16.1392 37.479 16.2228 37.5678 16.3317L38.3868 17.3366C38.4755 17.4454 38.534 17.5758 38.5565 17.7145C38.5789 17.8531 38.5644 17.9953 38.5144 18.1266C38.4645 18.2579 38.3809 18.3737 38.272 18.4624C38.163 18.5511 38.0327 18.6096 37.894 18.632L36.6145 18.8388C36.5708 18.8461 36.5267 18.8499 36.4824 18.85ZM36.9477 16.6758C36.9387 16.6758 36.9298 16.6765 36.9209 16.6779C36.8928 16.6821 36.8663 16.6939 36.8442 16.7119C36.8221 16.7298 36.8053 16.7534 36.7954 16.7801L36.3348 17.9918C36.3246 18.0183 36.3216 18.0471 36.3261 18.0752C36.3306 18.1033 36.3424 18.1298 36.3604 18.1518C36.3784 18.1739 36.4019 18.1908 36.4285 18.2009C36.4551 18.211 36.4839 18.2139 36.512 18.2092L37.7916 18.0025C37.8196 17.998 37.846 17.9862 37.8681 17.9682C37.8902 17.9503 37.9071 17.9268 37.9172 17.9002C37.9274 17.8737 37.9303 17.8449 37.9258 17.8168C37.9212 17.7888 37.9094 17.7624 37.8914 17.7403L37.0725 16.7355C37.0576 16.7166 37.0386 16.7015 37.017 16.6912C36.9954 16.6808 36.9717 16.6756 36.9477 16.6758Z" fill="#371A45"/>
<path d="M29.4441 10.0749C30.2145 13.6994 34.7175 17.441 37.008 16.9544C39.2985 16.4677 41.89 11.2174 41.1194 7.59307C40.3488 3.9687 37.1108 1.58606 33.8867 2.27154C30.6626 2.95701 28.6735 6.45049 29.4441 10.0749Z" fill="#00D7ED"/>
<g opacity="0.7">
<path opacity="0.7" d="M29.4441 10.0749C29.4465 10.0856 29.4487 10.0963 29.4511 10.1072C29.0919 6.76987 31.0204 3.70913 34.0161 3.07332C37.2085 2.39486 40.4151 4.72397 41.2252 8.2887C41.2031 8.05532 41.1678 7.82337 41.1194 7.594C40.3488 3.96944 37.1108 1.5868 33.8867 2.27209C30.6626 2.95738 28.6735 6.4503 29.4441 10.0749Z" fill="white"/>
</g>
<g opacity="0.35">
<path opacity="0.35" d="M29.4441 10.0751C30.2147 13.6996 34.7175 17.4412 37.0078 16.9546C39.2982 16.468 41.89 11.2173 41.1194 7.59331C41.1122 7.55971 41.1052 7.52685 41.0974 7.49417C41.0408 10.3996 38.6374 13.9956 36.5997 14.4287C34.3093 14.9157 29.969 11.9386 29.3297 8.93159C29.3112 8.84316 29.2946 8.75417 29.2804 8.66611C29.2904 9.13989 29.3452 9.61166 29.4441 10.0751Z" fill="#371A45"/>
</g>
<path d="M36.5923 17.3145C35.4355 17.3145 33.9002 16.576 32.4453 15.2959C30.737 13.7924 29.4984 11.8654 29.132 10.1412C28.3261 6.35052 30.4293 2.68019 33.8203 1.95926C37.2113 1.23834 40.6257 3.73582 41.4316 7.52616C41.7982 9.25028 41.4501 11.5138 40.5017 13.5828C39.5753 15.6023 38.2621 17.0135 37.0743 17.2661C36.9158 17.299 36.7542 17.3152 36.5923 17.3145ZM34.9985 2.47342C34.647 2.47368 34.2964 2.5108 33.9526 2.58419C30.9065 3.232 29.0234 6.56283 29.756 10.0092C30.4472 13.261 34.3625 16.6799 36.5659 16.6801C36.692 16.6809 36.8178 16.6686 36.9414 16.6432C39.0408 16.1968 41.5396 11.1064 40.807 7.66037C40.1587 4.60812 37.6743 2.47342 34.9985 2.47342Z" fill="#371A45"/>
<g opacity="0.5">
<path opacity="0.5" d="M34.3856 4.04331C32.7963 4.18565 31.7807 4.83715 31.0923 5.92048C30.3621 7.06897 30.7522 8.00755 31.6354 7.86485C32.5186 7.72214 32.6508 6.2982 34.6238 5.34042C35.8985 4.72122 35.6401 3.93088 34.3856 4.04331Z" fill="white"/>
</g>
<path d="M32.4035 16.1187C32.3946 16.1382 32.3877 16.1586 32.3831 16.1796L32.4035 16.1187Z" fill="#D66B09"/>
<path d="M24.9 16.1345C25.6704 19.7589 30.1736 23.5007 32.4639 23.0139C34.7542 22.527 37.3459 17.2769 36.5755 13.6526C35.8051 10.0282 32.566 7.64573 29.3419 8.33102C26.1177 9.01632 24.1289 12.5107 24.9 16.1345Z" fill="#FF2222"/>
<g opacity="0.7">
<path opacity="0.7" d="M24.9 16.1344C24.9024 16.1453 24.9048 16.156 24.907 16.1667C24.548 12.8296 26.4763 9.76871 29.4722 9.1329C32.6644 8.45443 35.871 10.7834 36.6813 14.3481C36.6592 14.1147 36.6238 13.8828 36.5753 13.6534C35.8047 10.0288 32.5667 7.64637 29.3426 8.33167C26.1185 9.01696 24.1287 12.5106 24.9 16.1344Z" fill="white"/>
</g>
<g opacity="0.35">
<path opacity="0.35" d="M24.9924 15.3962C25.763 19.0207 30.2657 22.7623 32.5561 22.2759C34.8464 21.7894 37.4382 16.5384 36.6676 12.9144C36.6606 12.881 36.6534 12.8481 36.6458 12.8152C36.589 15.7209 34.1857 19.3167 32.1479 19.75C29.8577 20.2368 25.5172 17.2602 24.8781 14.2528C24.8596 14.1644 24.843 14.0754 24.8286 13.9874C24.8386 14.4611 24.8934 14.9328 24.9924 15.3962Z" fill="#371A45"/>
</g>
<path d="M32.0474 23.3742C30.8907 23.3742 29.3553 22.6357 27.9003 21.3556C26.1923 19.8521 24.9537 17.9251 24.5871 16.2009C24.1983 14.3716 24.4674 12.5149 25.3453 10.9728C26.2301 9.41872 27.626 8.36974 29.2755 8.01897C30.9251 7.6682 32.6271 8.05903 34.0674 9.11872C35.4967 10.171 36.4979 11.7569 36.8869 13.5864C37.2533 15.3105 36.9053 17.5741 35.9568 19.6431C35.0304 21.6624 33.7172 23.0738 32.5296 23.3262C32.371 23.359 32.2093 23.3751 32.0474 23.3742ZM30.4621 8.5322C30.1079 8.53213 29.7547 8.56925 29.4083 8.64297C27.9393 8.95515 26.6933 9.89466 25.9006 11.2883C25.1001 12.6942 24.8557 14.3915 25.212 16.068C25.9032 19.3196 29.8185 22.7385 32.0221 22.7389C32.1481 22.7397 32.2739 22.7273 32.3974 22.702C34.497 22.2556 36.9956 17.1652 36.2631 13.719C35.9067 12.0427 34.9929 10.5916 33.6897 9.63287C32.705 8.90863 31.588 8.5322 30.4621 8.5322Z" fill="#371A45"/>
<g opacity="0.5">
<path opacity="0.5" d="M29.8407 9.91849C28.2514 10.0608 27.2358 10.7134 26.5475 11.7958C25.8172 12.9442 26.2075 13.882 27.0907 13.74C27.9739 13.5981 28.1061 12.1736 30.0789 11.2156C31.3538 10.5966 31.0952 9.80606 29.8407 9.91849Z" fill="white"/>
</g>
<path d="M40.7476 16.2323C40.7304 16.2451 40.7146 16.2597 40.7004 16.2759L40.7476 16.2323Z" fill="#D66B09"/>
<path d="M37.9586 22.0877L38.1933 23.3615C38.2085 23.4446 38.2017 23.5302 38.1734 23.6098C38.1451 23.6893 38.0964 23.7601 38.0321 23.8148C37.9678 23.8696 37.8902 23.9065 37.8072 23.9217C37.7241 23.937 37.6385 23.9302 37.5589 23.9019L36.3375 23.4677C36.2579 23.4394 36.1872 23.3906 36.1324 23.3264C36.0777 23.2621 36.0408 23.1845 36.0255 23.1015C36.0102 23.0184 36.0171 22.9328 36.0454 22.8532C36.0737 22.7737 36.1224 22.7029 36.1867 22.6482L37.1734 21.8074C37.2378 21.7526 37.3155 21.7158 37.3986 21.7006C37.4817 21.6853 37.5674 21.6923 37.647 21.7207C37.7266 21.7491 37.7973 21.798 37.852 21.8624C37.9067 21.9268 37.9435 22.0045 37.9586 22.0877Z" fill="#3BD8E0"/>
<g opacity="0.35">
<path opacity="0.35" d="M37.9968 22.0961L38.2392 23.3699C38.255 23.4529 38.2486 23.5385 38.2208 23.6183C38.193 23.698 38.1447 23.769 38.0808 23.8242C38.0168 23.8793 37.9395 23.9167 37.8565 23.9325C37.7735 23.9483 37.6879 23.942 37.6081 23.9142L36.3841 23.4873C36.3044 23.4596 36.2333 23.4113 36.1781 23.3473C36.1229 23.2834 36.0856 23.206 36.0698 23.123C36.054 23.0401 36.0603 22.9544 36.0881 22.8746C36.116 22.7949 36.1643 22.7239 36.2283 22.6687L37.2099 21.8221C37.2739 21.7669 37.3512 21.7296 37.4341 21.7138C37.517 21.698 37.6027 21.7043 37.6824 21.732C37.7621 21.7598 37.8332 21.808 37.8883 21.8719C37.9435 21.9358 37.9809 22.0131 37.9968 22.0961Z" fill="#371A45"/>
</g>
<path d="M37.7231 24.2507C37.6307 24.2506 37.539 24.2346 37.452 24.2035L36.2306 23.7692C36.0983 23.7222 35.9806 23.6411 35.8896 23.5342C35.7985 23.4272 35.7371 23.2982 35.7117 23.1601C35.6863 23.0219 35.6977 22.8795 35.7447 22.7471C35.7918 22.6148 35.8728 22.4971 35.9797 22.406L36.9663 21.5655C37.0733 21.4744 37.2023 21.413 37.3405 21.3876C37.4786 21.3621 37.6211 21.3735 37.7534 21.4206C37.8858 21.4676 38.0035 21.5487 38.0946 21.6556C38.1857 21.7626 38.2471 21.8916 38.2725 22.0298L38.5071 23.3046C38.5282 23.4198 38.5238 23.5382 38.4942 23.6515C38.4646 23.7649 38.4105 23.8703 38.3358 23.9605C38.2611 24.0507 38.1675 24.1234 38.0616 24.1736C37.9558 24.2237 37.8402 24.25 37.7231 24.2507ZM37.4831 22.0123C37.4451 22.0122 37.4085 22.0261 37.38 22.0512L36.3933 22.8918C36.3714 22.9102 36.3548 22.934 36.3451 22.961C36.3355 22.9879 36.3331 23.0168 36.3383 23.045C36.3434 23.0731 36.3559 23.0993 36.3745 23.1211C36.3931 23.1428 36.4171 23.1592 36.444 23.1687L37.6655 23.6029C37.6923 23.6124 37.7211 23.6147 37.7491 23.6095C37.777 23.6044 37.8031 23.5919 37.8248 23.5735C37.8464 23.5551 37.8628 23.5312 37.8724 23.5045C37.8819 23.4777 37.8842 23.4488 37.8791 23.4209L37.6444 22.147C37.6395 22.1189 37.6272 22.0927 37.6087 22.0709C37.5903 22.0492 37.5663 22.0328 37.5394 22.0235C37.5215 22.0167 37.5026 22.0129 37.4834 22.0123H37.4831Z" fill="#371A45"/>
<path d="M34.1607 12.6367C33.0929 16.1848 35.2407 21.6313 37.4838 22.3063C39.7269 22.9812 44.5234 19.6249 45.5914 16.0766C46.6594 12.5283 44.9655 8.88215 41.8093 7.93231C38.6531 6.98246 35.2287 9.08837 34.1607 12.6367Z" fill="#068FFF"/>
<g opacity="0.7">
<path opacity="0.7" d="M34.1607 12.6367L34.1512 12.6684C35.4415 9.56984 38.6051 7.81415 41.5373 8.6968C44.6625 9.63834 46.3534 13.2217 45.3489 16.7368C45.4418 16.5216 45.5225 16.3012 45.5904 16.0768C46.6582 12.5292 44.9655 8.88215 41.8093 7.93231C38.6531 6.98246 35.2287 9.08837 34.1607 12.6367Z" fill="white"/>
</g>
<g opacity="0.35">
<path opacity="0.35" d="M34.1607 11.8059C33.0929 15.3542 35.2409 20.8002 37.4827 21.4755C39.7245 22.1508 44.5228 18.7938 45.5904 15.246C45.6002 15.2134 45.6098 15.181 45.6189 15.1486C44.1715 17.6687 40.3348 19.6652 38.3398 19.0648C36.0979 18.39 33.7245 13.6925 34.6106 10.7484C34.6366 10.6618 34.666 10.576 34.6952 10.492C34.4759 10.9121 34.2969 11.352 34.1607 11.8059Z" fill="#371A45"/>
</g>
<path d="M38.1105 22.7093C37.867 22.7121 37.6245 22.6792 37.3905 22.6118C36.2274 22.2611 35.0359 20.7472 34.2799 18.6575C33.5057 16.5177 33.3465 14.2325 33.8553 12.5447C34.3944 10.754 35.5237 9.25546 37.0349 8.32592C38.5582 7.389 40.2866 7.14069 41.9014 7.62678C43.5162 8.11287 44.82 9.27373 45.5734 10.8958C46.3205 12.5051 46.4352 14.3778 45.8961 16.1687C45.3881 17.8565 43.9946 19.6744 42.1669 21.0313C40.7184 22.1076 39.2381 22.7093 38.1105 22.7093ZM34.4662 12.7286C33.4508 16.1023 35.5196 21.3821 37.5749 22.0006C39.6303 22.619 44.2696 19.3583 45.285 15.9847C45.7789 14.3436 45.6757 12.6319 44.9944 11.1646C44.3193 9.70998 43.1553 8.67059 41.7173 8.23786C40.2794 7.80512 38.7351 8.02943 37.3691 8.86943C35.9911 9.717 34.9602 11.0876 34.4662 12.7279V12.7286Z" fill="#371A45"/>
<g opacity="0.5">
<path opacity="0.5" d="M41.483 9.56388C40.0212 8.92419 38.817 9.00782 37.6927 9.62554C36.5001 10.2811 36.3908 11.2917 37.2337 11.5915C38.0767 11.8913 38.8777 10.7067 41.0678 10.8161C42.4833 10.8863 42.6369 10.0688 41.483 9.56388Z" fill="white"/>
</g>
<path d="M34.8715 39.1292C34.2759 39.2501 33.8376 39.1718 33.8376 39.1718C33.8219 39.2 33.8053 39.2289 33.7889 39.2569C31.8354 42.7216 30.1436 44.7134 28.91 45.8488C28.7193 46.021 28.4958 46.1529 28.2528 46.2365C26.7574 46.7748 24.4846 45.8765 24.4846 45.8765L24.7505 44.6512L25.3966 41.6652C25.3966 41.6652 25.7311 41.4887 26.304 41.0745C26.3646 41.0298 26.4284 40.9831 26.4943 40.9336C26.997 40.5579 27.6482 40.0229 28.3975 39.2968C29.5846 38.1463 31.0191 36.5157 32.4995 34.2765C32.4995 34.2765 33.113 33.1809 34.5726 33.5517C35.3507 33.7497 35.7554 34.0759 35.8859 34.5202C35.8859 34.5202 36.6201 34.4392 36.6408 35.4802C36.66 36.3645 36.2747 38.8449 34.8715 39.1292Z" fill="white"/>
<g opacity="0.35">
<path opacity="0.35" d="M33.7881 39.2584C31.8347 42.7224 30.1436 44.7134 28.91 45.8492C27.5583 47.0926 24.4846 45.8774 24.4846 45.8774L24.8108 44.3719C25.8273 44.6054 27.0912 44.2449 28.104 43.7887C32.115 41.9822 32.4554 39.2555 32.6961 37.8919C32.7277 38.3222 32.9537 38.8765 33.7881 39.2584Z" fill="#371A45"/>
</g>
<g opacity="0.35">
<path opacity="0.35" d="M34.2949 39.1955C34.2949 39.1955 33.0545 39.3035 32.7626 37.3938C32.7626 37.3938 33.1383 37.7276 34.2238 37.9615C35.3016 38.1938 36.2957 37.3765 36.2957 37.3765C36.2957 37.3765 35.8737 39.2359 34.2949 39.1955Z" fill="#371A45"/>
</g>
<path d="M25.6283 41.7214C25.5615 41.7216 25.4965 41.6991 25.4441 41.6577C25.3917 41.6162 25.3548 41.5582 25.3396 41.4931C25.3244 41.428 25.3318 41.3597 25.3604 41.2993C25.3891 41.239 25.4374 41.1901 25.4974 41.1607C25.5286 41.1452 28.6505 39.5584 32.2479 34.1232C32.505 33.6744 33.3275 32.9315 34.6464 33.2662C35.3919 33.4554 35.863 33.7683 36.0864 34.2227C36.3201 34.698 36.271 35.2868 35.9289 36.0753C35.5953 36.8466 34.9037 37.2646 34.3187 37.0462C33.7809 36.8457 33.3772 36.0891 33.8572 34.5673C33.8808 34.4926 33.9331 34.4302 34.0027 34.3941C34.0722 34.3579 34.1533 34.3508 34.2281 34.3744C34.3028 34.398 34.3651 34.4503 34.4013 34.5199C34.4375 34.5895 34.4446 34.6705 34.421 34.7453C34.0887 35.7954 34.2423 36.3871 34.5247 36.4923C34.7647 36.5822 35.162 36.3581 35.386 35.8404C35.6494 35.2312 35.7048 34.7881 35.5553 34.4835C35.4129 34.194 35.0679 33.9832 34.5002 33.8392C33.2743 33.528 32.7622 34.413 32.7574 34.4222L32.746 34.4407C29.0466 40.0334 25.8903 41.6259 25.7577 41.6909C25.7174 41.7108 25.6732 41.7212 25.6283 41.7214Z" fill="#371A45"/>
<path d="M26.7542 47.6041C26.6823 47.6046 26.6126 47.5787 26.5583 47.5315C26.504 47.4842 26.4689 47.4187 26.4594 47.3473C26.45 47.276 26.467 47.2036 26.5072 47.1439C26.5474 47.0841 26.608 47.0411 26.6776 47.0229C26.7042 47.0154 29.5977 46.1196 33.5797 39.0272L33.6825 38.8441L33.8893 38.881C33.892 38.881 34.2858 38.9466 34.8123 38.8399C36.0147 38.5958 36.3631 36.2636 36.3467 35.4872C36.3409 35.2129 36.2776 35.0124 36.163 34.9077C36.0945 34.8462 36.0051 34.8132 35.913 34.8154C35.8745 34.8197 35.8356 34.8163 35.7985 34.8054C35.7613 34.7946 35.7267 34.7765 35.6966 34.7521C35.6665 34.7278 35.6415 34.6978 35.623 34.6637C35.6046 34.6297 35.5931 34.5923 35.5892 34.5538C35.5811 34.4756 35.6044 34.3973 35.6538 34.3361C35.7033 34.2749 35.775 34.2358 35.8532 34.2272C35.9784 34.2179 36.1042 34.2335 36.2233 34.2731C36.3424 34.3127 36.4525 34.3756 36.5472 34.458C36.7968 34.677 36.928 35.0191 36.9373 35.4747C36.9594 36.5781 36.4846 39.1031 34.9296 39.4184C34.6237 39.481 34.3111 39.5035 33.9995 39.4855C29.9147 46.6934 26.9558 47.5598 26.831 47.5934C26.806 47.6004 26.7802 47.604 26.7542 47.6041Z" fill="#371A45"/>
<path d="M33.8378 39.4676C33.8241 39.4676 33.8104 39.4667 33.7968 39.4648C33.2753 39.3926 32.8959 39.1613 32.6688 38.7771C32.3051 38.1616 32.3694 37.2005 32.8599 35.9206C33.3366 34.6768 33.9604 34.6299 34.0784 34.6333L34.0625 35.224C34.0695 35.225 34.0767 35.225 34.0837 35.224C34.0804 35.224 33.7394 35.2794 33.4123 36.1325C33.0013 37.2044 32.9182 38.037 33.1782 38.4771C33.3106 38.7013 33.5395 38.8331 33.8783 38.88C33.953 38.8895 34.0212 38.9273 34.069 38.9854C34.1168 39.0436 34.1406 39.1179 34.1355 39.193C34.1303 39.2682 34.0967 39.3385 34.0415 39.3897C33.9862 39.4409 33.9135 39.469 33.8382 39.4683L33.8378 39.4676Z" fill="#371A45"/>
<path d="M28.2657 54.5322C27.9602 56.1014 27.2437 59.7766 25.0842 61.8885C25.0842 61.8885 25.2539 64.7097 24.0834 65.7249C23.2846 66.4179 20.9588 65.9239 20.4665 64.3414C20.0418 62.9767 20.6629 60.8728 21.0131 60.2442C21.7968 58.8396 22.3573 57.0592 22.3525 56.2565L21.3999 56.2111C20.8202 57.7209 19.3691 59.9573 18.2265 60.976C18.2265 60.976 18.1711 63.5078 16.5465 64.5291C15.3687 65.2703 13.0909 64.8457 12.6452 62.8779C12.3334 61.5014 13.1651 59.5631 13.6405 58.8199C14.3932 57.6446 15.7697 54.8772 16.3185 52.807C16.3554 52.6648 16.39 52.5254 16.4195 52.3901C16.5432 51.8241 16.6654 51.2471 16.7843 50.6791C16.8927 50.1585 16.9992 49.6452 17.1002 49.1529C17.388 47.7531 17.638 46.5276 17.8076 45.8169C17.8076 45.8169 17.8839 45.3092 18.0144 44.6202C18.1161 44.0859 18.2507 43.4423 18.4093 42.842C18.6807 41.8137 19.0213 40.9146 19.382 40.9146H25.3968C25.7452 40.9146 26.0453 40.9737 26.3042 41.0754C26.8396 41.2834 27.1999 41.6702 27.4403 42.083C27.8771 42.8296 27.9245 43.6587 27.9245 43.6587C28.0097 44.3861 28.1341 45.2639 28.2522 46.2372C28.5508 48.6954 28.8063 51.762 28.2657 54.5322Z" fill="white"/>
<g opacity="0.35">
<path opacity="0.35" d="M17.4896 50.7606C17.4724 50.8424 17.4552 50.924 17.4373 51.0058C17.2062 50.9266 16.9867 50.8166 16.7849 50.6788C16.7862 50.6733 16.7869 50.668 16.7882 50.6624L17.4896 50.7606Z" fill="#371A45"/>
</g>
<path d="M17.904 45.8395C17.633 48.0763 17.2056 50.2848 16.7211 52.4886C16.5943 53.0577 16.4156 53.6036 16.2184 54.1396C16.0213 54.6755 15.8047 55.2019 15.5752 55.7216C15.3458 56.2412 15.1021 56.7541 14.8466 57.2612C14.5911 57.7684 14.323 58.2692 14.0248 58.7612L13.807 59.1159L13.7097 59.2903L13.6174 59.4702C13.4979 59.7127 13.3912 59.9633 13.2949 60.2171C13.1985 60.471 13.1187 60.7305 13.0484 60.9908C12.9817 61.2497 12.9319 61.5127 12.8994 61.778C12.8739 62.04 12.8638 62.3022 12.8919 62.5534C12.9232 62.8008 12.9842 63.0486 13.0888 63.2734C13.1923 63.498 13.3337 63.7031 13.5068 63.8797C13.6823 64.0562 13.8862 64.2019 14.1099 64.311C14.5668 64.5332 15.0785 64.6173 15.5824 64.5528C15.827 64.5227 16.0645 64.4499 16.284 64.3379C16.3372 64.3093 16.3888 64.2779 16.4387 64.2438L16.5164 64.1913L16.5903 64.1337C16.6892 64.0559 16.7823 63.971 16.869 63.8797C17.0429 63.6902 17.1937 63.4808 17.3184 63.2559C17.4447 63.0246 17.5502 62.7826 17.6339 62.5328C17.719 62.2793 17.7863 62.0202 17.8353 61.7574C17.8606 61.6254 17.8807 61.4924 17.8973 61.3593C17.9139 61.2262 17.9259 61.088 17.9304 60.9685L17.9352 60.8393L18.0291 60.754C18.3655 60.4496 18.6753 60.0968 18.9683 59.7307C19.2613 59.3646 19.5356 58.9789 19.7955 58.5846C20.0555 58.1902 20.299 57.7846 20.524 57.3709C20.7491 56.9572 20.9553 56.534 21.1226 56.1043L21.2003 55.9047L21.4126 55.9148L22.3659 55.9601L22.6527 55.9737L22.6475 56.2538C22.6397 56.6588 22.5637 57.0144 22.476 57.3694C22.3883 57.7244 22.2788 58.0673 22.1586 58.407C21.9173 59.0869 21.6218 59.7463 21.2751 60.379C21.1316 60.6495 21.0166 60.9788 20.9221 61.3021C20.827 61.6286 20.753 61.9608 20.7005 62.2968C20.6468 62.6287 20.6199 62.9644 20.6199 63.3006C20.6223 63.6316 20.6568 63.9604 20.7491 64.2576C20.8442 64.5469 21.0099 64.808 21.2311 65.0173C21.4543 65.2316 21.7296 65.4002 22.025 65.5217C22.3202 65.6435 22.6341 65.7141 22.953 65.7305C23.1066 65.7386 23.2606 65.7293 23.4122 65.703C23.5587 65.6769 23.6955 65.6291 23.8028 65.5619C23.8291 65.5461 23.8542 65.5283 23.8778 65.5086C23.9021 65.4901 23.9296 65.4602 23.9557 65.4369C24.0085 65.3846 24.0573 65.3284 24.1017 65.2688C24.195 65.144 24.2754 65.0101 24.3417 64.8691C24.4765 64.5787 24.5727 64.2598 24.6399 63.9305C24.707 63.598 24.7518 63.2615 24.7739 62.923C24.798 62.5842 24.803 62.2443 24.7888 61.9049L24.7827 61.7688L24.8773 61.6765C25.4186 61.1446 25.8653 60.5118 26.2377 59.8363C26.6101 59.1608 26.9104 58.4389 27.1608 57.7003C27.4094 56.9574 27.6162 56.2012 27.78 55.4352C27.8221 55.2432 27.8624 55.0505 27.9009 54.857C27.9393 54.6637 27.9795 54.468 28.0096 54.2771C28.0397 54.0862 28.0772 53.8937 28.1045 53.7007L28.1754 53.1196C28.2522 52.3399 28.2888 51.5568 28.2853 50.7733C28.2808 49.9878 28.2339 49.2013 28.1625 48.4165L27.9347 46.0582C27.9002 45.6635 27.8666 45.2681 27.8464 44.8702C27.8263 44.4724 27.8125 44.0723 27.828 43.6702C27.8288 43.6465 27.8381 43.6238 27.8541 43.6063C27.8702 43.5888 27.892 43.5776 27.9156 43.5748C27.9391 43.5719 27.963 43.5775 27.9827 43.5907C28.0025 43.6038 28.017 43.6236 28.0235 43.6464V43.6473C28.1331 44.0334 28.2218 44.4211 28.3035 44.8104C28.3853 45.1998 28.4553 45.5923 28.5184 45.9859C28.6423 46.7732 28.7322 47.568 28.7834 48.3674C28.8345 49.1668 28.8703 49.9671 28.8757 50.7704C28.8793 51.5756 28.8416 52.3806 28.7625 53.182L28.6887 53.7835C28.6606 53.9836 28.6227 54.1828 28.5903 54.3825C28.5578 54.5823 28.5183 54.7772 28.4795 54.9733C28.4407 55.1694 28.3995 55.3652 28.3565 55.5613C28.1882 56.349 27.9758 57.1266 27.7203 57.8904C27.4619 58.6553 27.148 59.407 26.7546 60.1224C26.3612 60.8378 25.8834 61.5164 25.2901 62.0996L25.3785 61.8707C25.3943 62.2356 25.3891 62.601 25.363 62.9653C25.3392 63.3303 25.2908 63.6933 25.2183 64.0518C25.1444 64.4129 25.0377 64.7736 24.8756 65.1225C24.7919 65.3007 24.6903 65.4699 24.5723 65.6275C24.5111 65.709 24.4441 65.7859 24.3718 65.8577C24.3328 65.8935 24.3002 65.9286 24.2553 65.9646C24.2111 66.0012 24.1644 66.0346 24.1154 66.0644C23.9327 66.1755 23.7305 66.2507 23.5196 66.286C23.3238 66.3206 23.1247 66.333 22.9261 66.3229C22.5396 66.3035 22.1592 66.2182 21.8014 66.0707C21.4456 65.924 21.1083 65.72 20.8229 65.4454C20.5375 65.1709 20.3088 64.8244 20.1866 64.4372C20.0695 64.0601 20.0326 63.6803 20.0291 63.3074C20.0289 62.9387 20.0583 62.5706 20.117 62.2065C20.1735 61.846 20.253 61.4895 20.3551 61.1391C20.4592 60.7874 20.5731 60.446 20.7594 60.0929C21.0902 59.4887 21.3722 58.859 21.6026 58.2098C21.7174 57.8852 21.8202 57.5564 21.9037 57.2264C21.9871 56.8963 22.0514 56.5586 22.0573 56.2579L22.3386 56.5516L21.3855 56.5062L21.6755 56.3169C21.4942 56.7825 21.2776 57.2236 21.0445 57.6541C20.8113 58.0846 20.5593 58.5033 20.2903 58.9104C20.0213 59.3175 19.7365 59.7157 19.4315 60.0999C19.1265 60.4841 18.7995 60.8555 18.4235 61.1961L18.5223 60.9822C18.5163 61.1437 18.5027 61.2833 18.4853 61.4317C18.468 61.5801 18.4451 61.723 18.4176 61.8674C18.3637 62.1575 18.2896 62.4435 18.196 62.7233C18.101 63.007 17.9809 63.2818 17.8371 63.5443C17.6888 63.8118 17.5091 64.0607 17.3018 64.2857C17.0869 64.5147 16.8378 64.7089 16.5633 64.8615C16.2813 65.0067 15.976 65.101 15.6613 65.1401C15.0416 65.2199 14.4122 65.1164 13.8507 64.8423C13.5679 64.7041 13.3102 64.5195 13.0883 64.2962C12.8666 64.0705 12.6854 63.8081 12.5529 63.5208C12.4213 63.2343 12.345 62.93 12.3061 62.6206C12.2719 62.3125 12.2845 62.0099 12.3136 61.7127C12.3492 61.4196 12.404 61.1291 12.4778 60.8432C12.5522 60.5611 12.6407 60.283 12.7431 60.0098C12.8463 59.7379 12.9602 59.4704 13.0894 59.2084L13.1896 59.0127L13.2976 58.8187L13.5212 58.4544C13.8063 57.9844 14.0686 57.4915 14.3202 56.996C14.5719 56.5004 14.8083 55.994 15.029 55.4821C15.2496 54.9702 15.4578 54.4549 15.6413 53.9323C15.8268 53.4151 15.9815 52.8875 16.1049 52.3521C16.3397 51.2564 16.5749 50.1561 16.8249 49.0595C16.9508 48.5114 17.0811 47.9636 17.2268 47.4188C17.3725 46.874 17.5244 46.3296 17.7144 45.7942C17.7226 45.7713 17.7389 45.7521 17.7603 45.7405C17.7817 45.7288 17.8067 45.7255 17.8304 45.731C17.8541 45.7366 17.875 45.7507 17.889 45.7707C17.9029 45.7907 17.9091 45.8151 17.9062 45.8393L17.904 45.8395Z" fill="#371A45"/>
<path d="M32.4065 48.6599C31.762 48.6599 31.3084 48.4236 31.2988 48.4184C31.2557 48.3952 31.2237 48.3557 31.2096 48.3088C31.1956 48.2619 31.2008 48.2113 31.2241 48.1683C31.2473 48.1252 31.2867 48.0931 31.3337 48.0791C31.3806 48.065 31.4311 48.0702 31.4742 48.0935C31.5481 48.1326 33.3073 49.033 34.7345 46.744C35.5479 45.4396 35.0786 44.1071 34.5818 42.6963C34.1794 41.5529 33.7631 40.3701 34.0356 39.1563C34.0473 39.1096 34.0768 39.0693 34.1178 39.044C34.1588 39.0188 34.208 39.0105 34.255 39.0211C34.302 39.0316 34.343 39.06 34.3693 39.1004C34.3956 39.1407 34.4051 39.1897 34.3958 39.2369C34.1465 40.3479 34.5449 41.4795 34.9302 42.5737C35.434 44.0048 35.955 45.4845 35.0478 46.9395C34.1766 48.3361 33.1609 48.6599 32.4065 48.6599Z" fill="#371A45"/>
<path d="M29.5575 50.691C29.5976 50.1212 29.1683 49.6268 28.5985 49.5867C28.0288 49.5465 27.5343 49.9759 27.4942 50.5456C27.4541 51.1154 27.8834 51.6098 28.4532 51.65C29.0229 51.6901 29.5174 51.2608 29.5575 50.691Z" fill="white"/>
<g opacity="0.35">
<path opacity="0.35" d="M29.5617 50.6366C29.5597 50.7724 29.5311 50.9064 29.4773 51.0311C29.4236 51.1558 29.3458 51.2687 29.2484 51.3633C29.151 51.4579 29.0359 51.5324 28.9098 51.5826C28.7836 51.6327 28.6488 51.6575 28.513 51.6556C28.3772 51.6536 28.2432 51.625 28.1185 51.5712C27.9938 51.5174 27.8809 51.4397 27.7863 51.3423C27.6917 51.2449 27.6172 51.1298 27.567 51.0036C27.5169 50.8775 27.4921 50.7426 27.494 50.6069C27.4958 50.4539 27.532 50.3033 27.5998 50.1662C27.6809 50.3445 27.8111 50.4961 27.975 50.6033C28.139 50.7105 28.33 50.7689 28.5259 50.7717C28.7217 50.7745 28.9144 50.7216 29.0814 50.6192C29.2483 50.5168 29.3828 50.369 29.469 50.1932C29.5327 50.3322 29.5644 50.4837 29.5617 50.6366Z" fill="#371A45"/>
</g>
<path d="M28.5284 51.8869H28.5099C28.1694 51.8844 27.8437 51.7471 27.6042 51.505C27.3647 51.263 27.231 50.9358 27.2322 50.5953C27.2334 50.2548 27.3695 49.9286 27.6108 49.6883C27.852 49.4479 28.1786 49.313 28.5191 49.313C28.8597 49.313 29.1863 49.4479 29.4275 49.6883C29.6687 49.9286 29.8049 50.2548 29.8061 50.5953C29.8073 50.9358 29.6735 51.263 29.434 51.505C29.1945 51.7471 28.8689 51.8844 28.5284 51.8869ZM28.5284 49.8192C28.3194 49.8239 28.1206 49.9098 27.9739 50.0587C27.8273 50.2076 27.7445 50.4078 27.743 50.6168C27.7415 50.8258 27.8216 51.0271 27.9661 51.178C28.1106 51.329 28.3083 51.4177 28.5171 51.4253H28.5287C28.7389 51.4226 28.9397 51.3375 29.0879 51.1884C29.2361 51.0393 29.32 50.8381 29.3215 50.6279C29.323 50.4176 29.242 50.2152 29.0959 50.064C28.9498 49.9128 28.7503 49.8249 28.5402 49.8192H28.5284Z" fill="#371A45"/>
<g opacity="0.35">
<path opacity="0.35" d="M27.6692 53.0844C27.6809 53.3631 27.5819 53.635 27.3937 53.8409C27.2056 54.0468 26.9436 54.1699 26.665 54.1832L21.7814 54.4031C21.5027 54.415 21.2306 54.316 21.0247 54.1279C20.8187 53.9397 20.6957 53.6776 20.6824 53.399L20.6687 53.0864C18.8226 53.4333 17.5908 53.2465 16.9424 53.0665C16.3201 55.0515 15.1133 57.4515 14.4258 58.5243C13.9504 59.2675 13.1185 61.2058 13.4303 62.5823C13.7896 64.17 15.3413 64.7528 16.5461 64.5296C15.3673 65.2701 13.0917 64.8449 12.6461 62.8777C12.3343 61.5012 13.166 59.5629 13.6413 58.8197C14.394 57.6444 15.7705 54.877 16.3194 52.8067C16.3563 52.6646 16.3908 52.5252 16.4204 52.3899C16.544 51.8238 16.6663 51.2469 16.7852 50.6789C16.987 50.8166 17.2064 50.9266 17.4376 51.0058C18.5977 51.4193 20.1542 51.3053 20.5862 51.2634L20.5652 50.8C20.553 50.5211 20.6519 50.2489 20.8401 50.0429C21.0284 49.8368 21.2907 49.7139 21.5695 49.701L26.4524 49.4813C26.7311 49.4693 27.0032 49.5682 27.2092 49.7564C27.4152 49.9446 27.5382 50.2067 27.5514 50.4854L27.6437 52.5438L27.6692 53.0844Z" fill="#371A45"/>
</g>
<path d="M27.0323 53.3591L22.1492 53.579C21.8705 53.5908 21.5984 53.4918 21.3925 53.3036C21.1866 53.1155 21.0635 52.8535 21.0502 52.5748L20.9333 49.9758C20.9231 49.7336 20.9966 49.4952 21.1414 49.3007C21.2862 49.1063 21.4935 48.9675 21.7284 48.9078C21.7969 48.8903 21.867 48.8799 21.9376 48.877L26.82 48.6569C27.0987 48.6449 27.3709 48.7439 27.5769 48.9321C27.7828 49.1203 27.9058 49.3825 27.919 49.6612L28.0113 51.7195L28.0358 52.2601C28.0476 52.5387 27.9487 52.8106 27.7607 53.0165C27.5726 53.2224 27.3108 53.3456 27.0323 53.3591Z" fill="white"/>
<g opacity="0.35">
<path opacity="0.35" d="M27.0323 53.3588L22.1492 53.5787C21.8705 53.5905 21.5984 53.4915 21.3925 53.3034C21.1866 53.1152 21.0635 52.8532 21.0502 52.5745L20.9333 49.9755C20.9231 49.7333 20.9966 49.4949 21.1414 49.3005C21.2862 49.106 21.4935 48.9672 21.7284 48.9075C22.014 49.0792 22.1955 49.1891 22.1955 49.1891C22.5278 51.2645 23.1681 52.2779 25.7604 52.2035C26.8796 52.1712 27.5776 51.9688 28.0128 51.7192L28.0373 52.2598C28.0491 52.5386 27.95 52.8108 27.7616 53.0167C27.5733 53.2227 27.311 53.3457 27.0323 53.3588Z" fill="#371A45"/>
</g>
<path d="M22.1005 53.811C21.7705 53.81 21.4535 53.6822 21.215 53.454C20.9766 53.2259 20.8349 52.9148 20.8193 52.5852L20.702 49.986C20.6872 49.646 20.8077 49.3141 21.0372 49.0629C21.2667 48.8117 21.5865 48.6618 21.9264 48.646L26.8099 48.4262C27.1497 48.4117 27.4814 48.5323 27.7325 48.7617C27.9836 48.9911 28.1336 49.3106 28.1498 49.6503L28.2668 52.2495C28.2813 52.5894 28.1607 52.9211 27.9312 53.1722C27.7018 53.4233 27.3822 53.5733 27.0425 53.5895L22.1592 53.8092C22.1396 53.8105 22.1199 53.811 22.1005 53.811ZM26.868 48.8862C26.8555 48.8862 26.8431 48.8862 26.8311 48.8862L21.9476 49.1063C21.73 49.1164 21.5252 49.2124 21.3782 49.3733C21.2312 49.5341 21.1541 49.7467 21.1636 49.9644L21.2808 52.5636C21.2914 52.781 21.3876 52.9855 21.5483 53.1324C21.7091 53.2792 21.9214 53.3566 22.1389 53.3476L27.0222 53.1276C27.2396 53.1169 27.4441 53.0208 27.591 52.86C27.7378 52.6993 27.8152 52.487 27.8062 52.2695L27.6892 49.6703C27.6787 49.4593 27.5878 49.2603 27.4352 49.1143C27.2825 48.9683 27.0796 48.8863 26.8684 48.8853L26.868 48.8862Z" fill="#371A45"/>
<path d="M27.2274 53.3309C27.1635 53.3471 27.0981 53.3565 27.0323 53.3589L22.1492 53.5788C21.9472 53.5874 21.7471 53.5378 21.5725 53.4359C21.398 53.334 21.2564 53.184 21.1646 53.0039C21.0961 52.8708 21.0573 52.7243 21.0509 52.5747L20.9985 51.4201L20.9813 51.0391L20.9333 49.9757C20.9216 49.697 21.0207 49.425 21.2088 49.2192C21.397 49.0133 21.659 48.8902 21.9376 48.8769L22.9929 48.8296C22.7545 48.8862 22.5432 49.0241 22.3953 49.2194C22.2474 49.4148 22.1721 49.6555 22.1822 49.9004L22.2452 51.3034L22.2993 52.4992C22.3127 52.7778 22.4358 53.0397 22.6417 53.2278C22.8475 53.416 23.1195 53.5151 23.3981 53.5035L27.2274 53.3309Z" fill="white"/>
<g opacity="0.35">
<path opacity="0.35" d="M27.2274 53.3309C27.1635 53.3471 27.0981 53.3565 27.0323 53.359L22.1492 53.5789C21.8706 53.5908 21.5985 53.4918 21.3927 53.3036C21.1868 53.1154 21.064 52.8533 21.0509 52.5747L20.9806 51.04C21.1155 51.3059 21.3513 51.629 21.7059 51.648C21.9005 51.6589 22.085 51.511 22.2445 51.3051L22.2986 52.5009C22.312 52.7795 22.4351 53.0414 22.641 53.2295C22.8468 53.4177 23.1187 53.5168 23.3974 53.5052L27.2274 53.3309Z" fill="#371A45"/>
</g>
<path d="M22.0997 53.8111C21.7698 53.8099 21.453 53.682 21.2147 53.4538C20.9764 53.2257 20.8349 52.9147 20.8194 52.5852L20.7023 49.986C20.6879 49.6462 20.8085 49.3145 21.0379 49.0634C21.2673 48.8123 21.5868 48.6623 21.9265 48.6461L22.9814 48.5986L23.0449 49.0537C22.8586 49.0978 22.6934 49.2054 22.5779 49.3581C22.4624 49.5109 22.4037 49.6991 22.4121 49.8904L22.5293 52.4896C22.5398 52.7069 22.6357 52.9112 22.7962 53.0581C22.9567 53.205 23.1687 53.2826 23.3861 53.2738L27.2167 53.1008L27.2824 53.5554C27.2033 53.5749 27.1224 53.5864 27.0409 53.5897L22.1588 53.8092C22.139 53.8105 22.1193 53.8111 22.0997 53.8111ZM22.1979 49.0958L21.9474 49.1071C21.7299 49.1177 21.5255 49.2139 21.3786 49.3746C21.2317 49.5353 21.1543 49.7476 21.1633 49.9652L21.2804 52.5647C21.2909 52.7821 21.3869 52.9866 21.5476 53.1334C21.7082 53.2803 21.9204 53.3576 22.1379 53.3486L22.4206 53.3359C22.2066 53.1127 22.0814 52.8191 22.0683 52.5103L21.9511 49.9111C21.9378 49.6191 22.0249 49.3314 22.1979 49.0958Z" fill="#371A45"/>
<path d="M24.3513 51.1345C24.355 51.2307 24.2503 52.012 24.2503 52.012L23.7027 52.0336C23.3256 52.0483 23.0045 51.6699 22.9855 51.1882C22.9665 50.7066 23.2569 50.3041 23.6341 50.2891L24.1818 50.2677C24.1818 50.2677 24.345 50.9779 24.3513 51.1345Z" fill="#22A7F0"/>
<g opacity="0.35">
<path opacity="0.35" d="M24.4437 51.1345C24.4474 51.2307 24.3427 52.012 24.3427 52.012L23.7951 52.0336C23.418 52.0483 23.0969 51.6699 23.0779 51.1882C23.0589 50.7066 23.3493 50.3041 23.7265 50.2891L24.2742 50.2677C24.2742 50.2677 24.4374 50.9779 24.4437 51.1345Z" fill="#371A45"/>
</g>
<path d="M23.7738 52.2187C23.3079 52.2187 22.9157 51.7666 22.8932 51.1956C22.8703 50.6129 23.2407 50.1235 23.719 50.1047L24.1013 50.0897C24.1913 50.0856 24.2798 50.1134 24.3511 50.1684C24.4224 50.2234 24.4719 50.3019 24.4907 50.3899C24.5778 50.7848 24.6242 51.0329 24.6279 51.1273C24.6279 51.1529 24.6316 51.2212 24.5474 51.8694C24.5359 51.9592 24.4929 52.0421 24.4261 52.1031C24.3592 52.1642 24.2729 52.1995 24.1824 52.2028L23.8021 52.2178C23.7923 52.2185 23.7834 52.2187 23.7738 52.2187ZM24.1163 50.4586L23.7341 50.4736C23.4639 50.4843 23.248 50.8083 23.2626 51.181C23.2772 51.5475 23.51 51.8495 23.7746 51.8495H23.7882L24.1685 51.8345C24.1718 51.8344 24.1749 51.8332 24.1773 51.831C24.1798 51.8289 24.1814 51.8259 24.1818 51.8227C24.2392 51.3807 24.2594 51.1797 24.2594 51.1411C24.257 51.0867 24.2224 50.8827 24.1301 50.4699C24.1295 50.4667 24.1278 50.4638 24.1253 50.4618C24.1229 50.4597 24.1197 50.4586 24.1165 50.4586H24.1163Z" fill="#371A45"/>
<path d="M24.3415 52.013C24.7187 51.9981 25.0091 51.5956 24.9902 51.1139C24.9713 50.6322 24.6502 50.2538 24.273 50.2686C23.8958 50.2834 23.6054 50.6859 23.6244 51.1676C23.6433 51.6493 23.9644 52.0278 24.3415 52.013Z" fill="#22A7F0"/>
<g opacity="0.7">
<path opacity="0.7" d="M24.991 51.1138C24.9935 51.1716 24.9913 51.2296 24.9844 51.2871C24.892 50.9203 24.6151 50.6594 24.3013 50.6714C23.9706 50.684 23.707 50.9945 23.6588 51.3957C23.6398 51.3209 23.6288 51.2444 23.626 51.1673C23.6075 50.6856 23.8979 50.2832 24.2749 50.268C24.6519 50.2529 24.9727 50.6314 24.991 51.1138Z" fill="white"/>
</g>
<g opacity="0.35">
<path opacity="0.35" d="M24.9911 51.114C25.0096 51.5955 24.7199 51.9981 24.3429 52.0131C23.9659 52.028 23.6445 51.649 23.6255 51.1675C23.6221 51.0897 23.6273 51.0118 23.6408 50.9351C23.7483 51.2705 24.0115 51.5041 24.3088 51.4923C24.6226 51.4799 24.8765 51.198 24.9416 50.8262C24.9708 50.9195 24.9875 51.0163 24.9911 51.114Z" fill="#371A45"/>
</g>
<path d="M24.3218 52.1973C23.8557 52.1973 23.4635 51.7452 23.4412 51.174C23.4183 50.5915 23.7886 50.1023 24.2668 50.0835C24.2764 50.0835 24.2853 50.0835 24.2952 50.0835C24.7612 50.0835 25.1533 50.5356 25.1758 51.1068C25.1987 51.6893 24.8282 52.1776 24.3501 52.1973C24.3406 52.1971 24.3312 52.1973 24.3218 52.1973ZM24.295 50.452H24.2814C24.0113 50.4627 23.7955 50.7865 23.8101 51.1592C23.8246 51.532 24.0619 51.8388 24.3355 51.8273C24.6056 51.8166 24.8216 51.4928 24.807 51.1201C24.7926 50.754 24.5596 50.452 24.295 50.452Z" fill="#371A45"/>
<path d="M25.6977 53.5932C25.6494 53.5932 25.603 53.5743 25.5685 53.5405C25.534 53.5067 25.5141 53.4607 25.5131 53.4124L25.485 52.0965C25.4809 51.9157 25.5217 51.7367 25.6038 51.5756C25.6859 51.4145 25.8067 51.2763 25.9554 51.1734C26.0561 51.1041 26.1375 51.0103 26.192 50.9009C26.2464 50.7914 26.272 50.6699 26.2665 50.5478L26.1895 48.6953C26.1885 48.6711 26.1923 48.6469 26.2006 48.6241C26.209 48.6013 26.2217 48.5804 26.2382 48.5625C26.2714 48.5265 26.3175 48.5051 26.3665 48.5031C26.4154 48.501 26.4632 48.5185 26.4993 48.5517C26.5171 48.5681 26.5316 48.5879 26.5418 48.6099C26.552 48.632 26.5577 48.6558 26.5588 48.68L26.6357 50.5339C26.644 50.7182 26.6052 50.9016 26.5231 51.0668C26.4409 51.2319 26.3182 51.3735 26.1663 51.4782C26.0678 51.5464 25.9878 51.6379 25.9334 51.7446C25.879 51.8513 25.8519 51.9698 25.8546 52.0895L25.8827 53.4054C25.8832 53.4297 25.879 53.4538 25.8702 53.4764C25.8614 53.499 25.8483 53.5197 25.8315 53.5372C25.8147 53.5547 25.7947 53.5687 25.7725 53.5785C25.7503 53.5883 25.7264 53.5936 25.7021 53.5941L25.6977 53.5932Z" fill="#371A45"/>
<path d="M17.0263 49.7591C17.0263 49.7591 16.1873 49.922 16.1559 50.9082C16.1332 51.6171 16.7612 52.0402 16.7612 52.0402C16.7612 52.0402 18.1772 52.8243 21.1407 52.242C21.1407 52.242 22.0268 51.1063 21.0685 50.4269C21.0685 50.4269 18.2574 50.7802 17.0263 49.7591Z" fill="white"/>
<g opacity="0.35">
<path opacity="0.35" d="M21.1409 52.2422C18.1771 52.8239 16.7614 52.0402 16.7614 52.0402C16.7614 52.0402 16.1337 51.6171 16.1557 50.9083C16.1575 50.8518 16.1623 50.7954 16.1701 50.7394C16.2836 50.9689 16.4506 51.1678 16.6571 51.3191C16.6571 51.3191 17.8924 52.0022 20.4693 51.6186C20.9193 51.5514 21.2906 51.2183 21.3829 50.7725C21.3829 50.7684 21.3846 50.7642 21.3855 50.7599C21.78 51.4229 21.1409 52.2422 21.1409 52.2422Z" fill="#371A45"/>
</g>
<path d="M19.0662 52.6886C17.4804 52.6886 16.6935 52.2666 16.6492 52.2422L16.632 52.2317C16.6021 52.2114 15.8986 51.7277 15.9248 50.9008C15.9543 49.9751 16.6293 49.6011 16.9821 49.5326L17.0893 49.5117L17.1733 49.5815C18.3141 50.5277 21.012 50.2011 21.0394 50.1979L21.1284 50.1867L21.2022 50.2386C21.5053 50.4534 21.6837 50.7298 21.732 51.0601C21.8299 51.7247 21.3444 52.3574 21.3229 52.384L21.27 52.4519L21.1854 52.4685C20.3653 52.6295 19.6599 52.6886 19.0662 52.6886ZM16.8818 51.843C17.0048 51.9042 18.3588 52.5328 21.0054 52.033C21.106 51.8807 21.3296 51.493 21.2748 51.1254C21.2482 50.9469 21.1586 50.7961 21.0019 50.6665C20.4973 50.7189 18.1852 50.9022 16.9773 50.0135C16.7901 50.0829 16.4061 50.2998 16.3865 50.9155C16.3697 51.4426 16.8139 51.7921 16.8822 51.843H16.8818Z" fill="#371A45"/>
<path d="M32.6775 41.3516C32.6606 41.3516 32.6437 41.3497 32.6273 41.3461C29.4735 40.6462 29.7138 37.6663 29.7166 37.637C29.7229 37.5763 29.7527 37.5205 29.7996 37.4815C29.8465 37.4425 29.9069 37.4235 29.9677 37.4285C30.0286 37.4342 30.0847 37.4638 30.1238 37.5108C30.1629 37.5579 30.1817 37.6185 30.1761 37.6794C30.1667 37.7859 29.9767 40.2856 32.7273 40.8963C32.7827 40.9087 32.8317 40.9411 32.8647 40.9873C32.8978 41.0334 32.9126 41.0902 32.9065 41.1466C32.9003 41.2031 32.8735 41.2553 32.8313 41.2932C32.789 41.3312 32.7343 41.3522 32.6775 41.3523V41.3516Z" fill="#371A45"/>
<path d="M35.721 26.0492L36.369 27.1717C36.4113 27.2448 36.4336 27.3278 36.4336 27.4123C36.4336 27.4968 36.4114 27.5798 36.3691 27.6529C36.3269 27.7261 36.2662 27.7869 36.193 27.8291C36.1198 27.8713 36.0368 27.8936 35.9523 27.8935H34.6562C34.5717 27.8935 34.4887 27.8712 34.4156 27.829C34.3425 27.7867 34.2817 27.726 34.2395 27.6528C34.1973 27.5797 34.1751 27.4967 34.175 27.4123C34.175 27.3278 34.1973 27.2448 34.2395 27.1717L34.8877 26.0492C34.9299 25.9761 34.9906 25.9153 35.0638 25.8731C35.1369 25.8309 35.2199 25.8086 35.3043 25.8086C35.3888 25.8086 35.4718 25.8309 35.5449 25.8731C35.6181 25.9153 35.6788 25.9761 35.721 26.0492Z" fill="#FFE000"/>
<g opacity="0.35">
<path opacity="0.35" d="M34.1891 27.2948C34.1713 27.3658 34.17 27.4399 34.1851 27.5115C34.2003 27.5831 34.2316 27.6504 34.2766 27.7081C34.3216 27.7658 34.3792 27.8125 34.445 27.8446C34.5108 27.8767 34.583 27.8935 34.6562 27.8935C34.583 27.8935 34.5108 27.8767 34.445 27.8446C34.3792 27.8125 34.3216 27.7658 34.2766 27.7081C34.2316 27.6504 34.2003 27.5831 34.1851 27.5115C34.17 27.4399 34.1713 27.3658 34.1891 27.2948Z" fill="#371A45"/>
</g>
<g opacity="0.35">
<path opacity="0.35" d="M34.6561 27.3397H35.9523C36.0299 27.3399 36.1063 27.3212 36.175 27.285C36.2436 27.2489 36.3024 27.1965 36.3461 27.1324L35.7204 26.0487C35.6782 25.9756 35.6175 25.9148 35.5443 25.8726C35.4712 25.8303 35.3882 25.8081 35.3038 25.8081C35.2193 25.8081 35.1363 25.8303 35.0632 25.8726C34.99 25.9148 34.9293 25.9756 34.8871 26.0487L34.2612 27.1324C34.3051 27.1966 34.364 27.2491 34.4328 27.2853C34.5017 27.3214 34.5784 27.3401 34.6561 27.3397Z" fill="#371A45"/>
</g>
<g opacity="0.35">
<path opacity="0.35" d="M36.0201 27.8893C36.1129 27.8763 36.1999 27.8365 36.2703 27.7747C36.3407 27.7129 36.3914 27.6318 36.4163 27.5415C36.3914 27.6318 36.3407 27.7129 36.2703 27.7747C36.1999 27.8365 36.1129 27.8763 36.0201 27.8893Z" fill="#371A45"/>
</g>
<g opacity="0.35">
<path opacity="0.35" d="M36.4163 27.541C36.4276 27.5016 36.4338 27.4608 36.4347 27.4197C36.4338 27.4608 36.4276 27.5016 36.4163 27.541Z" fill="#371A45"/>
</g>
<path d="M35.9524 28.2125H34.6562C34.5158 28.2124 34.3779 28.1755 34.2563 28.1052C34.1347 28.035 34.0337 27.934 33.9635 27.8124C33.8933 27.6909 33.8563 27.5529 33.8562 27.4125C33.8561 27.2721 33.893 27.1341 33.9632 27.0125L34.6113 25.8899C34.6809 25.7676 34.7817 25.6662 34.9035 25.5959C35.0253 25.5255 35.1636 25.4889 35.3042 25.4898C35.4448 25.489 35.5832 25.5256 35.705 25.5959C35.8267 25.6662 35.9276 25.7677 35.9972 25.8899L36.6454 27.0125C36.7156 27.1342 36.7525 27.2721 36.7524 27.4126C36.7523 27.553 36.7153 27.6909 36.6451 27.8125C36.5748 27.9341 36.4738 28.0351 36.3522 28.1053C36.2306 28.1755 36.0926 28.2125 35.9522 28.2125H35.9524ZM35.3044 26.1276C35.2759 26.1273 35.2478 26.1347 35.2231 26.1489C35.1984 26.1632 35.178 26.1838 35.1641 26.2087L34.5159 27.3313C34.5017 27.356 34.4943 27.3839 34.4943 27.4123C34.4943 27.4407 34.5018 27.4686 34.516 27.4933C34.5302 27.5179 34.5507 27.5383 34.5753 27.5525C34.5999 27.5668 34.6278 27.5743 34.6562 27.5743H35.9524C35.9808 27.5743 36.0088 27.5668 36.0335 27.5526C36.0581 27.5384 36.0786 27.5179 36.0928 27.4933C36.1071 27.4686 36.1146 27.4407 36.1146 27.4122C36.1146 27.3838 36.1071 27.3558 36.0929 27.3311L35.4447 26.2087C35.4307 26.1839 35.4103 26.1632 35.3856 26.149C35.3609 26.1347 35.3329 26.1274 35.3044 26.1276Z" fill="#371A45"/>
<path d="M28.9766 18.4165C29.159 22.1173 33.0073 26.5296 35.3458 26.4144C37.6843 26.2992 41.0805 21.5298 40.8981 17.8298C40.7157 14.1297 37.8992 11.2593 34.6072 11.4216C31.3151 11.5839 28.7942 14.7155 28.9766 18.4165Z" fill="#FFE000"/>
<g opacity="0.7">
<path opacity="0.7" d="M28.9766 18.4165L28.9783 18.4495C29.1562 15.0978 31.5487 12.3838 34.6072 12.2332C37.8669 12.0727 40.6607 14.8835 40.8919 18.5317C40.9073 18.2978 40.9094 18.0632 40.8983 17.829C40.7157 14.128 37.8993 11.2595 34.6072 11.4216C31.3151 11.5837 28.794 14.7155 28.9766 18.4165Z" fill="white"/>
</g>
<g opacity="0.35">
<path opacity="0.35" d="M28.9768 17.5856C29.1592 21.2866 33.0075 25.6985 35.346 25.5839C37.6845 25.4692 41.0809 20.6988 40.8985 16.9981C40.8966 16.964 40.895 16.9304 40.8926 16.8968C40.3731 19.7561 37.4268 22.9226 35.346 23.026C33.0075 23.1412 29.1974 19.5104 29.0462 16.4395C29.0416 16.3492 29.0399 16.2588 29.0399 16.1696C28.9741 16.6385 28.9529 17.1127 28.9768 17.5856Z" fill="#371A45"/>
</g>
<path d="M35.2604 26.7356C34.0593 26.7356 32.4795 25.7171 31.1065 24.0493C29.6601 22.2925 28.7448 20.1927 28.658 18.4322C28.5657 16.5641 29.128 14.774 30.2405 13.3922C31.3621 11.9991 32.9073 11.1862 34.5917 11.1029C38.052 10.9324 41.0265 13.9425 41.2174 17.8132C41.3041 19.5738 40.5997 21.7534 39.333 23.6439C38.0961 25.49 36.5747 26.6734 35.3619 26.7332C35.3283 26.7347 35.2938 26.7356 35.2604 26.7356ZM34.8727 11.7341C34.7898 11.7341 34.7065 11.7362 34.6237 11.7404C33.1238 11.8143 31.7437 12.5429 30.7382 13.7922C29.724 15.0522 29.2117 16.689 29.296 18.4008C29.3763 20.0291 30.2376 21.989 31.5998 23.6439C32.8669 25.1826 34.3357 26.145 35.3311 26.0959C37.475 25.9901 40.7538 21.3637 40.5805 17.8447C40.4108 14.4197 37.8753 11.7341 34.872 11.7341H34.8727Z" fill="#371A45"/>
<g opacity="0.7">
<path opacity="0.7" d="M34.8464 13.2527C33.2548 13.1397 32.1482 13.6219 31.2959 14.5806C30.3912 15.5977 30.6272 16.5866 31.522 16.5866C32.4168 16.5866 32.7744 15.202 34.8746 14.5712C36.2319 14.1634 36.1029 13.3415 34.8464 13.2527Z" fill="white"/>
</g>
<path d="M19.1346 42.5692L18.5403 44.8818L17.4784 49.0154C17.361 49.0586 17.2353 49.1032 17.1 49.1527C16.38 49.4165 15.4015 49.8306 14.1092 51.098C13.6565 51.5424 13.1503 51.8734 12.357 52.3591C10.6517 53.4031 7.63844 51.7047 10.0405 48.448C12.1148 45.6367 14.5167 44.3468 16.5389 43.5341C17.2141 43.2635 17.8467 43.0451 18.4106 42.8418C18.6668 42.7492 18.9092 42.6585 19.1346 42.5692Z" fill="white"/>
<g opacity="0.35">
<path opacity="0.35" d="M17.4786 49.0154C16.7347 49.2923 15.6433 49.5938 14.1103 51.0981C13.6576 51.5424 13.1514 51.8734 12.3581 52.3592C10.9437 53.2232 8.63309 52.2067 9.24786 49.9804C9.79229 53.8126 13.1063 51.3238 14.2694 50.0793C16.1233 48.0966 18.3018 47.5021 18.5119 47.8813C18.7219 48.2605 17.4786 49.0154 17.4786 49.0154Z" fill="#371A45"/>
</g>
<path d="M11.2384 52.96C10.5578 52.96 9.87819 52.694 9.4172 52.1913C8.54803 51.2429 8.69203 49.7782 9.80268 48.273C12.4783 44.6463 15.6398 43.5177 17.9483 42.6936C18.336 42.5555 18.7004 42.425 19.0244 42.2956C19.0604 42.2811 19.0989 42.274 19.1377 42.2744C19.1765 42.2749 19.2149 42.283 19.2505 42.2983C19.2862 42.3136 19.3185 42.3357 19.3456 42.3635C19.3727 42.3913 19.3941 42.4241 19.4085 42.4601C19.4229 42.4962 19.4301 42.5347 19.4296 42.5735C19.4291 42.6123 19.421 42.6506 19.4058 42.6863C19.3905 42.7219 19.3683 42.7542 19.3405 42.7813C19.3128 42.8085 19.2799 42.8298 19.2439 42.8442C18.9098 42.9779 18.5392 43.1103 18.1471 43.2504C15.9103 44.049 12.847 45.1425 10.2784 48.6242C9.33486 49.903 9.17979 51.0576 9.85382 51.792C10.4311 52.4217 11.464 52.5604 12.2051 52.1071C13.0264 51.6048 13.4902 51.2948 13.9035 50.8877C15.3496 49.4686 16.4499 49.0732 17.1779 48.8114C17.2466 48.7864 17.3128 48.7628 17.3763 48.7392C17.4127 48.7257 17.4514 48.7195 17.4901 48.7209C17.5289 48.7224 17.567 48.7314 17.6023 48.7476C17.6375 48.7637 17.6693 48.7867 17.6957 48.8151C17.7221 48.8436 17.7426 48.8769 17.7561 48.9133C17.7696 48.9496 17.7758 48.9883 17.7744 49.0271C17.7729 49.0658 17.7639 49.1039 17.7477 49.1392C17.7315 49.1745 17.7086 49.2062 17.6801 49.2326C17.6517 49.259 17.6184 49.2795 17.582 49.293C17.5166 49.3172 17.4487 49.3418 17.3778 49.3669C16.6578 49.6253 15.6714 49.9804 14.3176 51.3088C13.8624 51.7556 13.373 52.0842 12.5125 52.6108C12.1279 52.8461 11.683 52.96 11.2384 52.96Z" fill="#371A45"/>
<path d="M29.8041 36.0296C29.7816 36.0357 29.7582 36.0373 29.7351 36.0343C29.712 36.0313 29.6897 36.0238 29.6695 36.0122C29.6493 36.0006 29.6316 35.9852 29.6174 35.9668C29.6031 35.9483 29.5927 35.9273 29.5866 35.9048L28.2509 30.9755C28.2448 30.9531 28.2432 30.9296 28.2462 30.9065C28.2492 30.8834 28.2567 30.8611 28.2683 30.8409C28.2799 30.8207 28.2953 30.803 28.3137 30.7888C28.3322 30.7746 28.3533 30.7641 28.3757 30.7581C28.6115 30.6942 28.8576 30.6774 29.0999 30.7086C29.3421 30.7398 29.5759 30.8185 29.7878 30.94C29.9997 31.0616 30.1855 31.2237 30.3348 31.4171C30.484 31.6105 30.5937 31.8314 30.6576 32.0672L31.1132 33.7472C31.1771 33.983 31.194 34.2291 31.1628 34.4714C31.1316 34.7138 31.053 34.9476 30.9314 35.1595C30.8098 35.3715 30.6477 35.5574 30.4543 35.7067C30.2609 35.856 30.0399 35.9657 29.8041 36.0296Z" fill="white"/>
<path d="M29.7573 36.0985C29.7047 36.0984 29.6535 36.0809 29.6117 36.0489C29.57 36.0168 29.5399 35.9719 29.5262 35.9211L28.1905 30.9919C28.1821 30.9614 28.1798 30.9295 28.1838 30.8982C28.1877 30.8668 28.1979 30.8365 28.2135 30.8091C28.2292 30.7816 28.2502 30.7575 28.2752 30.7382C28.3003 30.7189 28.3289 30.7047 28.3594 30.6965C28.8516 30.5637 29.3764 30.6316 29.8187 30.8853C30.2609 31.139 30.5844 31.5578 30.7182 32.0497L31.1737 33.7308C31.2398 33.9745 31.2572 34.2289 31.2249 34.4794C31.1927 34.7298 31.1114 34.9715 30.9858 35.1905C30.8601 35.4096 30.6926 35.6017 30.4927 35.756C30.2927 35.9103 30.0644 36.0236 29.8206 36.0896C29.8 36.0953 29.7787 36.0983 29.7573 36.0985ZM28.8617 30.7552C28.7032 30.7553 28.5453 30.7764 28.3923 30.818C28.3777 30.8218 28.3641 30.8286 28.3521 30.8378C28.3402 30.8469 28.3302 30.8584 28.3227 30.8714C28.3152 30.8845 28.3103 30.8989 28.3084 30.9138C28.3064 30.9287 28.3075 30.9439 28.3114 30.9584L29.6471 35.8877C29.651 35.9022 29.6578 35.9159 29.667 35.9278C29.6762 35.9397 29.6876 35.9497 29.7007 35.9572C29.7138 35.9647 29.7282 35.9696 29.7431 35.9715C29.7581 35.9734 29.7732 35.9723 29.7878 35.9684C30.0156 35.9066 30.2291 35.8007 30.416 35.6564C30.6029 35.5122 30.7595 35.3326 30.877 35.1278C30.9945 34.9231 31.0704 34.6972 31.1006 34.4631C31.1308 34.2289 31.1145 33.9912 31.0528 33.7633L30.5973 32.0822C30.4934 31.7014 30.2673 31.3653 29.9537 31.1255C29.6401 30.8857 29.2565 30.7556 28.8617 30.7552Z" fill="#371A45"/>
<g opacity="0.35">
<path opacity="0.35" d="M30.9001 32.9595L31.1138 33.7478C31.1778 33.9837 31.1947 34.2299 31.1634 34.4723C31.1322 34.7147 31.0536 34.9486 30.932 35.1606C30.8103 35.3727 30.6481 35.5586 30.4546 35.708C30.2611 35.8573 30.0401 35.967 29.8042 36.0309C29.7587 36.0432 29.7103 36.0369 29.6695 36.0135C29.6287 35.99 29.5988 35.9514 29.5865 35.9059L29.231 34.5952C29.2526 34.6216 29.2813 34.6413 29.3139 34.6519C29.3464 34.6624 29.3812 34.6634 29.4143 34.6546L29.5311 34.6227C29.9037 34.5219 30.2357 34.3076 30.481 34.0095C30.7263 33.7115 30.8728 33.3445 30.9001 32.9595Z" fill="#371A45"/>
</g>
<path d="M29.7569 36.3315C29.6532 36.3312 29.5524 36.2968 29.4701 36.2337C29.3878 36.1706 29.3285 36.0821 29.3013 35.982L27.9656 31.0528C27.9328 30.9318 27.9493 30.8027 28.0116 30.6939C28.074 30.5852 28.1769 30.5056 28.2979 30.4727C28.8497 30.3239 29.4381 30.4001 29.9338 30.6845C30.4296 30.9688 30.7924 31.4382 30.9425 31.9897L31.398 33.6708C31.5475 34.2227 31.4716 34.8114 31.1871 35.3073C30.9026 35.8033 30.4327 36.1659 29.8808 36.3154C29.8404 36.3262 29.7987 36.3316 29.7569 36.3315ZM28.5684 31.016L29.8398 35.709C30.2118 35.5774 30.5203 35.3101 30.7035 34.9607C30.8867 34.6113 30.9312 34.2056 30.8279 33.8248L30.3724 32.1437C30.2688 31.7632 30.0255 31.4357 29.6911 31.2267C29.3567 31.0177 28.9558 30.9425 28.5684 31.016Z" fill="#371A45"/>
<path d="M12.1036 35.1665C12.1261 35.1604 12.1495 35.1588 12.1726 35.1618C12.1957 35.1648 12.218 35.1723 12.2382 35.1839C12.2584 35.1954 12.2761 35.2109 12.2903 35.2293C12.3046 35.2478 12.315 35.2688 12.3211 35.2913L13.657 40.2217C13.663 40.2441 13.6647 40.2676 13.6617 40.2907C13.6587 40.3138 13.6512 40.3361 13.6396 40.3563C13.628 40.3765 13.6126 40.3942 13.5941 40.4084C13.5757 40.4226 13.5546 40.4331 13.5322 40.4391C13.056 40.5681 12.548 40.5027 12.1201 40.2572C11.6921 40.0118 11.3792 39.6064 11.2501 39.1302L10.7954 37.4485C10.6663 36.9725 10.7316 36.4646 10.977 36.0366C11.2223 35.6087 11.6275 35.2957 12.1036 35.1665Z" fill="white"/>
<path d="M13.0458 40.566C12.6235 40.5656 12.213 40.4263 11.8775 40.1697C11.5421 39.9131 11.3003 39.5533 11.1893 39.1458L10.7339 37.4648C10.6011 36.9725 10.6691 36.4476 10.9229 36.0053C11.1767 35.5631 11.5956 35.2396 12.0877 35.1058C12.1491 35.0892 12.2146 35.0977 12.2698 35.1294C12.325 35.161 12.3653 35.2133 12.3819 35.2747L13.7178 40.204C13.7262 40.2345 13.7285 40.2663 13.7245 40.2977C13.7206 40.329 13.7105 40.3593 13.6948 40.3868C13.6791 40.4142 13.6581 40.4383 13.6331 40.4576C13.608 40.4769 13.5794 40.4911 13.5489 40.4994C13.3849 40.5437 13.2157 40.5661 13.0458 40.566ZM12.1198 35.2267C11.66 35.352 11.2686 35.6545 11.0314 36.0679C10.7943 36.4812 10.7308 36.9718 10.8548 37.432L11.3104 39.1138C11.4351 39.5739 11.7375 39.9657 12.151 40.2029C12.5646 40.4401 13.0554 40.5033 13.5155 40.3786C13.5448 40.3707 13.5698 40.3514 13.5849 40.3251C13.6001 40.2987 13.6042 40.2675 13.5963 40.2381L12.2605 35.3089C12.2565 35.2944 12.2498 35.2807 12.2406 35.2688C12.2314 35.2569 12.2199 35.2469 12.2068 35.2394C12.1938 35.2319 12.1794 35.2271 12.1644 35.2252C12.1495 35.2232 12.1343 35.2243 12.1198 35.2282V35.2267Z" fill="#371A45"/>
<g opacity="0.35">
<path opacity="0.35" d="M13.2867 38.8533L13.657 40.2216C13.6693 40.2671 13.663 40.3155 13.6395 40.3563C13.6161 40.3971 13.5774 40.427 13.532 40.4393C13.2963 40.5033 13.0502 40.5202 12.8079 40.489C12.5657 40.4578 12.3319 40.3793 12.12 40.2577C11.9081 40.1362 11.7222 39.9741 11.573 39.7807C11.4238 39.5873 11.3142 39.3663 11.2504 39.1305L11.0583 38.4222C11.286 38.6979 11.5883 38.9022 11.9291 39.0107C12.2699 39.1191 12.6347 39.1271 12.9798 39.0336L13.1596 38.9847C13.1907 38.9762 13.2189 38.9596 13.2412 38.9364C13.2636 38.9133 13.2793 38.8846 13.2867 38.8533Z" fill="#371A45"/>
</g>
<path d="M13.0461 40.799C12.5725 40.7983 12.1123 40.6421 11.7362 40.3543C11.3602 40.0665 11.0891 39.6631 10.9647 39.2061L10.5091 37.5261C10.3603 36.9742 10.4365 36.3858 10.7209 35.89C11.0053 35.3942 11.4748 35.0315 12.0263 34.8813C12.1473 34.8486 12.2763 34.8653 12.385 34.9276C12.4937 34.9899 12.5733 35.0927 12.6063 35.2136L13.9422 40.1428C13.975 40.2638 13.9585 40.3929 13.8962 40.5017C13.8339 40.6105 13.7309 40.69 13.6099 40.7229C13.4262 40.7731 13.2366 40.7987 13.0461 40.799ZM12.0676 35.4868C11.696 35.6189 11.3879 35.8863 11.2048 36.2355C11.0216 36.5848 10.9769 36.9903 11.0796 37.371L11.535 39.0521C11.6383 39.4329 11.8815 39.7606 12.216 39.9697C12.5506 40.1788 12.9518 40.2538 13.3393 40.1798L12.0676 35.4868Z" fill="#371A45"/>
<g opacity="0.35">
<path opacity="0.35" d="M28.3983 39.2985C28.2663 40.393 27.8791 41.4411 27.2678 42.3585C26.6566 43.2759 25.8385 44.0369 24.8793 44.5803C23.9201 45.1236 22.8467 45.434 21.7456 45.4866C20.6444 45.5391 19.5464 45.3323 18.5398 44.8828C18.3605 44.803 18.1854 44.7158 18.0144 44.621C17.477 44.3248 16.9805 43.9597 16.5375 43.5351C17.2126 43.2644 17.8453 43.046 18.4091 42.8428C18.6805 41.8145 19.0211 40.9154 19.3818 40.9154H25.3966C25.745 40.9154 26.0452 40.9745 26.304 41.0762C26.3646 41.0315 26.4284 40.9848 26.4943 40.9353C26.9978 40.5587 27.6489 40.0237 28.3983 39.2985Z" fill="#371A45"/>
</g>
<path d="M20.9547 44.3014C25.7616 44.3014 29.6584 40.4047 29.6584 35.5977C29.6584 30.7908 25.7616 26.894 20.9547 26.894C16.1478 26.894 12.251 30.7908 12.251 35.5977C12.251 40.4047 16.1478 44.3014 20.9547 44.3014Z" fill="white"/>
<path d="M20.9366 44.3666C19.2125 44.3666 17.5273 43.8565 16.0645 42.8732C14.121 41.5669 12.8027 39.5821 12.3522 37.2842C11.9017 34.9863 12.3729 32.6504 13.6792 30.7073C14.9856 28.7642 16.9702 27.4455 19.2681 26.995C21.566 26.5446 23.9019 27.0157 25.8452 28.3219C27.7885 29.628 29.107 31.613 29.5574 33.9109C30.4875 38.6544 27.3851 43.2709 22.6416 44.2003C22.08 44.3106 21.509 44.3663 20.9366 44.3666ZM20.9736 26.9539C20.4096 26.9542 19.8469 27.0091 19.2936 27.118C17.0287 27.5622 15.0721 28.8617 13.7845 30.7772C12.4968 32.6928 12.0325 34.9952 12.4766 37.2602C12.9208 39.5253 14.2201 41.4816 16.1357 42.7691C18.0513 44.0566 20.3538 44.5215 22.6187 44.0771C27.2942 43.1605 30.3524 38.6107 29.4356 33.9351C28.9916 31.67 27.6921 29.7135 25.7765 28.426C24.3334 27.4569 22.672 26.9539 20.9728 26.9539H20.9736Z" fill="#371A45"/>
<g opacity="0.35">
<path opacity="0.35" d="M29.1831 32.7568C29.3147 33.1379 29.4195 33.5276 29.4969 33.9232C30.4211 38.6403 27.3471 43.2138 22.6292 44.1391C17.9114 45.0644 13.3385 41.9893 12.4132 37.2723C12.3866 37.1368 12.3631 37.0004 12.3434 36.8662C13.7343 40.9109 17.9295 43.4127 22.2454 42.5666C26.8268 41.6673 29.8578 37.3275 29.1831 32.7568Z" fill="#371A45"/>
</g>
<path d="M20.9362 44.5997C19.1663 44.5997 17.4364 44.076 15.9347 43.0674C13.9396 41.7264 12.5862 39.689 12.1237 37.3299C11.6613 34.9709 12.145 32.5733 13.486 30.5782C14.8271 28.583 16.8645 27.2298 19.2235 26.7673C21.5825 26.3049 23.9801 26.7886 25.9751 28.1294C27.97 29.4703 29.3236 31.5079 29.7861 33.8669C30.7407 38.7365 27.5559 43.4749 22.6863 44.4297C22.1098 44.5427 21.5237 44.5997 20.9362 44.5997ZM20.9731 27.187C20.4242 27.1872 19.8766 27.2407 19.3379 27.3467C17.134 27.7787 15.2303 29.0433 13.9773 30.9072C12.7243 32.771 12.2725 35.0115 12.7047 37.2155C13.1369 39.4194 14.4011 41.3232 16.2652 42.576C18.1293 43.8288 20.3694 44.2809 22.5733 43.8487C27.123 42.9568 30.0986 38.5296 29.2066 33.9799C28.7746 31.776 27.5101 29.8722 25.6461 28.6194C24.2424 27.6764 22.6258 27.1877 20.9723 27.1877L20.9731 27.187Z" fill="#371A45"/>
<path d="M29.5117 34.1476C29.8645 35.8138 29.6512 37.4753 28.9973 38.9512C28.507 40.0576 26.0119 42.3407 22.4989 43.1179C19.241 43.8379 15.9026 42.7273 15.0059 41.9146C13.8098 40.8305 12.9413 39.3983 12.5874 37.732C11.6536 33.3226 15.0548 30.6924 19.7283 29.7025C24.4019 28.7126 28.5777 29.7385 29.5117 34.1476Z" fill="#371A45"/>
<g opacity="0.5">
<path opacity="0.5" d="M26.6814 35.8548C27.2976 35.8366 27.7768 35.1326 27.7517 34.2823C27.7266 33.432 27.2067 32.7575 26.5906 32.7757C25.9744 32.7939 25.4952 33.4979 25.5203 34.3482C25.5454 35.1985 26.0652 35.873 26.6814 35.8548Z" fill="white"/>
</g>
<g opacity="0.5">
<path opacity="0.5" d="M26.5297 37.6466C26.5722 37.2585 26.3367 36.9144 26.0037 36.8779C25.6706 36.8414 25.3662 37.1264 25.3237 37.5145C25.2812 37.9026 25.5167 38.2468 25.8497 38.2833C26.1828 38.3197 26.4872 38.0347 26.5297 37.6466Z" fill="white"/>
</g>
<g opacity="0.35">
<path opacity="0.35" d="M26.9946 30.3828C28.2382 31.1508 29.1362 32.3767 29.5115 34.1475C29.8645 35.8142 29.6509 37.4756 28.9975 38.9514C28.5072 40.0578 26.0117 42.3409 22.4991 43.1185C21.2586 43.3932 20.0068 43.4017 18.8817 43.2621C23.1803 42.2143 26.2165 39.4175 26.8244 38.0453C27.6552 36.1722 27.9249 34.0633 27.4769 31.9491C27.3651 31.4132 27.2037 30.8888 26.9946 30.3828Z" fill="#111A28"/>
</g>
<path d="M12.4287 34.1132C12.3827 34.1131 12.3374 34.1015 12.2969 34.0794C12.2565 34.0574 12.2222 34.0256 12.1972 33.987C12.1721 33.9483 12.1571 33.9041 12.1535 33.8582C12.1498 33.8123 12.1577 33.7662 12.1764 33.7241C13.2128 31.1972 15.8583 29.3136 19.4362 28.5548C22.9876 27.8027 26.1589 28.4095 28.1402 30.2197C28.1924 30.263 28.2268 30.324 28.237 30.391C28.2472 30.458 28.2325 30.5264 28.1956 30.5833C28.1588 30.6402 28.1023 30.6815 28.037 30.6996C27.9717 30.7176 27.902 30.7111 27.8412 30.6812L27.8279 30.674L27.8 30.6583L27.7764 30.6367C25.9302 28.9416 22.9313 28.38 19.5508 29.0959C16.1522 29.8159 13.6501 31.5811 12.6861 33.939L12.6741 33.9644C12.6507 34.0093 12.6154 34.0469 12.5722 34.0731C12.5289 34.0993 12.4793 34.1132 12.4287 34.1132Z" fill="#371A45"/>
<g opacity="0.5">
<path opacity="0.5" d="M15.0437 39.9528C15.0437 39.9528 12.7569 35.8923 14.7339 33.6624C16.711 31.4324 20.0852 30.7251 20.0522 30.9581C20.0522 30.9581 16.5098 32.6529 15.674 35.9141C15.0297 38.4289 15.0437 39.9528 15.0437 39.9528Z" fill="white"/>
</g>
<path d="M16.1027 49.8217C16.0474 49.8215 15.9939 49.8016 15.9521 49.7654C15.9102 49.7292 15.8828 49.6792 15.8747 49.6245C15.5311 47.2926 13.4584 45.2306 13.4378 45.2101C13.3941 45.1672 13.3693 45.1087 13.3688 45.0475C13.3683 44.9863 13.3921 44.9274 13.435 44.8837C13.4779 44.8401 13.5364 44.8153 13.5976 44.8148C13.6588 44.8142 13.7177 44.8381 13.7614 44.881C13.8511 44.969 15.965 47.0698 16.3314 49.5573C16.3404 49.6178 16.3249 49.6794 16.2884 49.7286C16.2519 49.7777 16.1974 49.8103 16.1368 49.8193C16.1255 49.8208 16.1141 49.8216 16.1027 49.8217Z" fill="#371A45"/>
</g>
</svg>
